<?xml version="1.0" standalone="no"?><!-- Generator: Gravit.io --><svg xmlns="http://www.w3.org/2000/svg" xmlns:xlink="http://www.w3.org/1999/xlink" style="isolation:isolate" viewBox="0 0 774.266 774.266" width="774.266" height="774.266"><defs><clipPath id="_clipPath_n9c5gkUOqsrz51O8aWUdWQievED1sIKl"><rect width="774.266" height="774.266"/></clipPath></defs><g clip-path="url(#_clipPath_n9c5gkUOqsrz51O8aWUdWQievED1sIKl)"><g><g><path d=" M 640.35 91.169 L 536.971 91.169 L 536.971 23.991 C 536.971 10.469 526.064 0 512.543 0 C 511.231 0 510.356 0.438 509.929 0.875 C 509.491 0.438 508.616 0 508.179 0 L 265.212 0 L 263.472 0 L 261.722 0 C 248.201 0 237.732 10.469 237.732 23.991 L 237.732 91.17 L 133.916 91.17 C 104.249 91.17 81.133 114.286 81.133 143.953 L 81.133 182.34 L 81.133 230.321 L 126.936 230.321 L 126.936 721.921 C 126.936 751.589 149.615 774.267 179.282 774.267 L 594.985 774.267 C 624.652 774.267 647.767 751.589 647.767 721.921 L 647.767 230.321 L 693.133 230.321 L 693.133 182.34 L 693.133 143.953 C 693.133 114.286 670.008 91.169 640.35 91.169 Z  M 285.713 47.981 L 488.553 47.981 L 488.553 91.169 L 285.713 91.169 L 285.713 47.981 L 285.713 47.981 Z  M 599.349 721.922 C 599.349 724.983 598.037 726.285 594.985 726.285 L 179.282 726.285 C 176.23 726.285 174.918 724.982 174.918 721.922 L 174.918 230.32 L 599.349 230.32 L 599.349 721.922 L 599.349 721.922 Z  M 644.715 182.339 L 129.551 182.339 L 129.551 143.952 C 129.551 140.899 130.863 139.15 133.915 139.15 L 640.35 139.15 C 643.403 139.15 644.715 140.899 644.715 143.952 L 644.715 182.339 Z " fill="rgb(255,255,255)"/><rect x="475.031" y="286.593" width="48.418" height="396.942" transform="matrix(1,0,0,1,0,0)" fill="rgb(255,255,255)"/><rect x="363.361" y="286.593" width="48.418" height="396.942" transform="matrix(1,0,0,1,0,0)" fill="rgb(255,255,255)"/><rect x="251.69" y="286.593" width="48.418" height="396.942" transform="matrix(1,0,0,1,0,0)" fill="rgb(255,255,255)"/></g></g></g></svg>
