<?xml version="1.0" standalone="no"?>
<svg xmlns="http://www.w3.org/2000/svg" xmlns:xlink="http://www.w3.org/1999/xlink" style="isolation:isolate" viewBox="0 0 174.001 169.176" width="174.001" height="169.176"><defs><clipPath id="_clipPath_T6BtNONGOvQ3y79pL5RA0tgSOlYqVzHa"><rect width="174.001" height="169.176"/></clipPath></defs><g clip-path="url(#_clipPath_T6BtNONGOvQ3y79pL5RA0tgSOlYqVzHa)"><g><g><path d=" M 3.625 95.315 C 3.922 72.782 6.887 49.064 12.816 27.124 C 14.299 22.38 21.414 24.159 20.229 29.199 C 15.485 48.767 12.52 68.632 11.631 88.793 C 10.741 108.953 10.445 135.934 24.973 151.647 C 32.385 159.652 45.726 159.355 55.806 159.949 C 70.631 160.838 85.751 160.542 100.575 159.652 C 115.399 159.059 130.52 157.577 145.344 155.798 C 153.349 154.908 166.394 150.461 173.51 154.315 C 174.103 154.611 174.103 155.501 173.806 155.798 C 168.47 162.617 153.349 162.321 145.344 163.506 C 127.555 165.878 110.063 167.064 92.274 167.954 C 70.631 168.843 36.832 173.291 19.636 156.984 C 3.922 142.752 3.625 114.883 3.625 95.315 Z " fill="rgb(0,0,0)"/><path d=" M 10.148 1.923 C 12.223 -1.042 15.781 -0.449 17.263 2.812 C 21.414 12.893 27.936 22.084 32.088 32.164 C 33.274 35.129 28.826 36.611 27.344 34.24 C 22.6 26.531 18.153 18.822 13.409 11.114 C 12.223 13.486 11.037 15.858 9.851 18.23 C 8.369 22.084 8.072 25.938 6.293 29.496 C 5.108 32.164 1.549 30.978 0.66 28.903 C -2.304 20.601 5.404 8.742 10.148 1.923 Z " fill="rgb(0,0,0)"/></g></g></g></svg>