<?xml version="1.0" standalone="no"?><!-- Generator: Gravit.io --><svg xmlns="http://www.w3.org/2000/svg" xmlns:xlink="http://www.w3.org/1999/xlink" style="isolation:isolate" viewBox="0 0 225 72" width="225" height="72"><defs><clipPath id="_clipPath_SWdrFKspzxyBAQuSokfkwWLafN5YBzT9"><rect width="225" height="72"/></clipPath></defs><g clip-path="url(#_clipPath_SWdrFKspzxyBAQuSokfkwWLafN5YBzT9)"><rect x="0.543" y="0.685" width="223.563" height="70.719" transform="matrix(1,0,0,1,0,0)" fill="rgb(255,255,255)" id="title_fill"/><rect x="33.668" y="28.366" width="157.664" height="15.268" transform="matrix(1,0,0,1,0,0)" fill="rgb(255,255,255)" id="artist_fill"/><path d=" M 1.002 31.514 L 1.002 0.995 L 1.002 0.995 L 1.002 0.995 L 224.002 0.995 L 224.002 31.514 L 224.002 31.514 L 192.113 31.514 L 192.113 27.36 L 32.887 27.36 L 32.887 27.36 L 32.887 27.36 L 32.887 31.514 L 1.002 31.514 Z  M 1.002 40.486 L 1.002 70.995 L 224.002 70.995 L 224.002 40.486 L 192.113 40.486 L 192.113 44.64 L 32.887 44.64 L 32.887 40.486 L 1.002 40.486 Z  M 0 31.514 L 0 0 L 0 0 L 0 0 L 225 0 L 225 31.514 L 225 31.514 L 225 40.486 L 225 72 L 0 72 L 0 40.486 L 0 31.514 Z  M 34.392 29.415 L 34.392 28.855 L 34.392 28.855 L 34.392 28.855 L 190.612 28.855 L 190.612 29.41 L 190.612 29.41 L 185.157 36 L 190.612 42.59 L 190.612 43.135 L 34.392 43.135 L 34.392 42.585 L 39.843 36 L 34.392 29.415 Z " fill-rule="evenodd" fill="rgb(255,0,0)" id="design"/></g></svg>