<?xml version="1.0" encoding="UTF-8" standalone="no"?><!-- Generator: Gravit.io --><svg xmlns="http://www.w3.org/2000/svg" xmlns:xlink="http://www.w3.org/1999/xlink" style="isolation:isolate" viewBox="0 0 225 72" width="225px" height="72px"><defs><clipPath id="_clipPath_czu7UlFJGX9szwlPL0XxoMMGukVyeWD5"><rect width="225" height="72"/></clipPath></defs><g clip-path="url(#_clipPath_czu7UlFJGX9szwlPL0XxoMMGukVyeWD5)"><rect x="0" y="0" width="0" height="0" id="artist_fill"/><rect x="0.543" y="0.685" width="223.563" height="70.719" transform="matrix(1,0,0,1,0,0)" fill="rgb(255,255,255)" id="title_fill"/><path d=" M 224.002 0.995 L 1.002 0.995 L 1.002 0.995 L 1.002 0.995 L 1.002 70.995 L 224.002 70.995 L 224.002 0.995 L 224.002 0.995 Z  M 0 0 L 0 0 L 0 0 L 225 0 L 225 72 L 0 72 L 0 0 L 0 0 Z  M 29.258 35.5 L 195.742 35.5 L 195.742 36.5 L 29.258 36.5 L 29.258 35.5 Z " fill-rule="evenodd" fill="rgb(255,0,0)" id="design"/></g></svg>