<?xml version="1.0" standalone="no"?><!-- Generator: Gravit.io --><svg xmlns="http://www.w3.org/2000/svg" xmlns:xlink="http://www.w3.org/1999/xlink" style="isolation:isolate" viewBox="0 0 416.5 416.5" width="416.5" height="416.5"><defs><clipPath id="_clipPath_oNQjewFXidzlDr8jDoqAgWnUd5Uo1et7"><rect width="416.5" height="416.5"/></clipPath></defs><g clip-path="url(#_clipPath_oNQjewFXidzlDr8jDoqAgWnUd5Uo1et7)"><path d=" M 0 208.25 C 0 93.314 93.314 0 208.25 0 C 323.186 0 416.5 93.314 416.5 208.25 C 416.5 323.186 323.186 416.5 208.25 416.5 C 93.314 416.5 0 323.186 0 208.25 Z  M 163.25 208.25 C 163.25 183.414 183.414 163.25 208.25 163.25 C 233.086 163.25 253.25 183.414 253.25 208.25 C 253.25 233.086 233.086 253.25 208.25 253.25 C 183.414 253.25 163.25 233.086 163.25 208.25 Z " fill-rule="evenodd" fill="rgb(69,74,85)"/><path d=" M 7.25 208.25 C 7.25 97.315 97.315 7.25 208.25 7.25 C 319.185 7.25 409.25 97.315 409.25 208.25 C 409.25 319.185 319.185 409.25 208.25 409.25 C 97.315 409.25 7.25 319.185 7.25 208.25 Z  M 163.25 208.25 C 163.25 183.414 183.414 163.25 208.25 163.25 C 233.086 163.25 253.25 183.414 253.25 208.25 C 253.25 233.086 233.086 253.25 208.25 253.25 C 183.414 253.25 163.25 233.086 163.25 208.25 Z " fill-rule="evenodd" fill="rgb(88,94,111)"/><path d=" M 66.25 208.25 C 66.25 129.878 129.878 66.25 208.25 66.25 C 286.622 66.25 350.25 129.878 350.25 208.25 C 350.25 286.622 286.622 350.25 208.25 350.25 C 129.878 350.25 66.25 286.622 66.25 208.25 Z  M 163.25 208.25 C 163.25 183.414 183.414 163.25 208.25 163.25 C 233.086 163.25 253.25 183.414 253.25 208.25 C 253.25 233.086 233.086 253.25 208.25 253.25 C 183.414 253.25 163.25 233.086 163.25 208.25 Z " fill-rule="evenodd" fill="rgb(69,74,85)"/><path d=" M 100.25 208.25 C 100.25 148.643 148.643 100.25 208.25 100.25 C 267.857 100.25 316.25 148.643 316.25 208.25 C 316.25 267.857 267.857 316.25 208.25 316.25 C 148.643 316.25 100.25 267.857 100.25 208.25 Z  M 163.25 208.25 C 163.25 183.414 183.414 163.25 208.25 163.25 C 233.086 163.25 253.25 183.414 253.25 208.25 C 253.25 233.086 233.086 253.25 208.25 253.25 C 183.414 253.25 163.25 233.086 163.25 208.25 Z " fill-rule="evenodd" fill="rgb(234,192,62)"/></g></svg>