<?xml version="1.0" standalone="no"?><!-- Generator: Gravit.io --><svg xmlns="http://www.w3.org/2000/svg" xmlns:xlink="http://www.w3.org/1999/xlink" style="isolation:isolate" viewBox="0 0 225 72" width="225" height="72"><defs><clipPath id="_clipPath_Qir8ZSOXGICU1TxGcee319CLqh0w003H"><rect width="225" height="72"/></clipPath></defs><g clip-path="url(#_clipPath_Qir8ZSOXGICU1TxGcee319CLqh0w003H)"><rect x="0.158" y="0.498" width="224.683" height="71.005" transform="matrix(1,0,0,1,0,0)" fill="rgb(255,255,255)" id="title_fill"/><path d=" M 189.916 44.64 L 194.309 44.64 L 202.673 36.013 L 194.309 27.36 L 189.916 27.36 L 189.916 27.36 L 35.084 27.36 L 30.691 27.36 L 22.327 36.013 L 30.691 44.64 L 35.084 44.64 L 35.084 44.64 L 189.916 44.64 Z " fill="rgb(255,255,255)" id="artist_fill"/><path d=" M 26.664 40.486 L 30.691 44.64 L 35.084 44.64 L 35.084 44.64 L 35.084 44.64 L 189.916 44.64 L 194.309 44.64 L 198.336 40.486 L 224.002 40.486 L 224.002 70.995 L 1.002 70.995 L 1.002 40.486 L 26.664 40.486 Z  M 26.676 31.514 L 30.691 27.36 L 35.084 27.36 L 189.916 27.36 L 189.916 27.36 L 194.309 27.36 L 198.324 31.514 L 224.002 31.514 L 224.002 31.514 L 224.002 0.995 L 1.002 0.995 L 1.002 0.995 L 1.002 31.514 L 1.002 31.514 L 26.676 31.514 Z  M 35.081 43.142 L 31.321 43.142 L 24.411 36.012 L 31.331 28.862 L 35.081 28.862 L 189.911 28.862 L 193.671 28.862 L 200.581 36.012 L 193.671 43.142 L 189.911 43.142 L 35.081 43.142 L 35.081 43.142 Z  M 0 0 L 225 0 L 225 72 L 0 72 L 0 0 L 0 0 L 0 0 L 0 0 Z " fill-rule="evenodd" fill="rgb(255,0,0)" id="design"/></g></svg>