<?xml version="1.0" standalone="no"?><!-- Generator: Gravit.io --><svg xmlns="http://www.w3.org/2000/svg" xmlns:xlink="http://www.w3.org/1999/xlink" style="isolation:isolate" viewBox="0 0 1379.008 1916.981" width="1379.008" height="1916.981"><defs><clipPath id="_clipPath_u7qCJZlOXwXHonXuO9whBqRzGHvVxvy8"><rect width="1379.008" height="1916.981"/></clipPath></defs><g clip-path="url(#_clipPath_u7qCJZlOXwXHonXuO9whBqRzGHvVxvy8)"><g><path d=" M 185.955 931.885 L 1192.938 931.885 L 1192.938 931.885 L 1322.695 931.885 L 1337.626 922.865 L 1295.069 1717.9 L 1286.443 1717.438 L 1286.443 1732.388 L 92.45 1732.388 L 92.45 1717.438 L 83.823 1717.9 L 41.374 924.871 L 63.872 931.885 L 185.955 931.885 Z " fill="rgb(210,210,210)"/><path d=" M 642.445 931.885 L 653.445 931.885 L 653.445 1758.991 L 642.445 1758.991 L 642.445 931.885 L 642.445 931.885 L 642.445 931.885 L 642.445 931.885 L 642.445 931.885 L 642.445 931.885 L 642.445 931.885 L 642.445 931.885 L 642.445 931.885 L 642.445 931.885 L 642.445 931.885 Z  M 779.859 1693.57 L 779.859 931.885 L 768.859 931.885 L 768.859 931.885 L 768.859 931.885 L 768.859 931.885 L 768.859 931.885 L 768.859 931.885 L 768.859 931.885 L 768.859 931.885 L 768.859 931.885 L 768.859 1715.354 L 779.859 1693.57 L 779.859 1693.57 Z  M 906.273 1469.531 L 906.273 931.885 L 895.273 931.885 L 895.273 931.885 L 895.273 931.885 L 895.273 931.885 L 895.273 931.885 L 895.273 931.885 L 895.273 931.885 L 895.273 1491.509 L 906.273 1469.531 L 906.273 1469.531 Z  M 987.687 1306.859 L 987.687 931.885 L 976.687 931.885 L 976.687 931.885 L 976.687 931.885 L 976.687 931.885 L 976.687 931.885 L 976.687 931.885 L 976.687 1328.837 L 987.687 1306.859 L 987.687 1306.859 Z  M 1032.687 1216.946 L 1032.687 931.885 L 1021.687 931.885 L 1021.687 931.885 L 1021.687 931.885 L 1021.687 931.885 L 1021.687 931.885 L 1021.687 1238.924 L 1032.687 1216.946 L 1032.687 1216.946 Z  M 1114.101 1054.274 L 1114.101 931.885 L 1103.101 931.885 L 1103.101 931.885 L 1103.101 931.885 L 1103.101 931.885 L 1103.101 1076.252 L 1114.101 1054.274 L 1114.101 1054.274 Z  M 1159.101 964.361 L 1159.101 931.885 L 1148.101 931.885 L 1148.101 931.885 L 1148.101 931.885 L 1148.101 986.339 L 1159.101 964.361 L 1159.101 964.361 Z  M 861.273 1559.444 L 861.273 931.885 L 850.273 931.885 L 850.273 931.885 L 850.273 931.885 L 850.273 931.885 L 850.273 931.885 L 850.273 931.885 L 850.273 931.885 L 850.273 931.885 L 850.273 1581.422 L 861.273 1559.444 L 861.273 1559.444 Z  M 482.031 1476.498 L 482.031 931.885 L 471.031 931.885 L 471.031 931.885 L 471.031 931.885 L 471.031 931.885 L 471.031 931.885 L 471.031 931.885 L 471.031 931.885 L 471.031 931.885 L 471.031 931.885 L 471.031 931.885 L 471.031 931.885 L 471.031 931.885 L 471.031 931.885 L 471.031 931.885 L 471.031 931.885 L 471.031 1454.519 L 482.031 1476.498 L 482.031 1476.498 L 482.031 1476.498 Z  M 400.617 1313.826 L 400.617 931.885 L 389.617 931.885 L 389.617 931.885 L 389.617 931.885 L 389.617 931.885 L 389.617 931.885 L 389.617 931.885 L 389.617 931.885 L 389.617 931.885 L 389.617 931.885 L 389.617 931.885 L 389.617 931.885 L 389.617 931.885 L 389.617 931.885 L 389.617 1291.847 L 400.617 1313.826 L 400.617 1313.826 L 400.617 1313.826 Z  M 229.203 971.328 L 229.203 931.885 L 218.203 931.885 L 218.203 931.885 L 218.203 931.885 L 218.203 931.885 L 218.203 931.885 L 218.203 931.885 L 218.203 931.885 L 218.203 931.885 L 218.203 931.885 L 218.203 931.885 L 218.203 931.885 L 218.203 931.885 L 218.203 949.349 L 229.203 971.328 L 229.203 971.328 L 229.203 971.328 Z  M 527.031 1566.411 L 527.031 931.885 L 516.031 931.885 L 516.031 931.885 L 516.031 931.885 L 516.031 931.885 L 516.031 931.885 L 516.031 931.885 L 516.031 931.885 L 516.031 931.885 L 516.031 931.885 L 516.031 931.885 L 516.031 931.885 L 516.031 931.885 L 516.031 931.885 L 516.031 931.885 L 516.031 931.885 L 516.031 1544.432 L 527.031 1566.411 L 527.031 1566.411 L 527.031 1566.411 Z  M 274.203 1061.241 L 274.203 931.885 L 263.203 931.885 L 263.203 931.885 L 263.203 931.885 L 263.203 931.885 L 263.203 931.885 L 263.203 931.885 L 263.203 931.885 L 263.203 931.885 L 263.203 931.885 L 263.203 931.885 L 263.203 931.885 L 263.203 1039.262 L 274.203 1061.241 L 274.203 1061.241 L 274.203 1061.241 Z  M 608.445 1700.475 L 608.445 931.885 L 597.445 931.885 L 597.445 931.885 L 597.445 931.885 L 597.445 931.885 L 597.445 931.885 L 597.445 931.885 L 597.445 931.885 L 597.445 931.885 L 597.445 931.885 L 597.445 931.885 L 597.445 1696.823 L 604.754 1693.165 L 608.445 1700.475 L 608.445 1700.475 L 608.445 1700.475 Z  M 355.617 1223.913 L 355.617 931.885 L 344.617 931.885 L 344.617 931.885 L 344.617 931.885 L 344.617 931.885 L 344.617 931.885 L 344.617 931.885 L 344.617 931.885 L 344.617 931.885 L 344.617 931.885 L 344.617 931.885 L 344.617 931.885 L 344.617 931.885 L 344.617 931.885 L 344.617 931.885 L 344.617 1201.934 L 355.617 1223.913 L 355.617 1223.913 L 355.617 1223.913 Z  M 723.859 931.885 L 734.859 931.885 L 734.859 1758.991 L 723.859 1758.991 L 723.859 931.885 Z " fill-rule="evenodd" fill="rgb(172,172,172)"/><path d=" M 1232.28 1767.276 L 149.933 1767.276 L 148.796 1744.746 L 100.858 1747.164 L 106.349 1856.011 L 103.905 1878.532 L 107.505 1878.923 L 108.002 1888.776 L 116.363 1888.354 L 116.363 1903.775 L 1267.356 1903.775 L 1267.356 1888.43 L 1274.212 1888.776 L 1274.658 1879.934 L 1278.356 1879.532 L 1275.845 1856.397 L 1281.356 1747.164 L 1233.417 1744.746 L 1232.28 1767.276 Z " fill="rgb(179,179,179)"/><path d=" M 1288.103 1723.992 L 1288.103 1716.011 L 1297.103 1716.011 L 1297.103 1750.011 L 1290.103 1750.011 L 1290.103 1758.991 L 92.11 1758.991 L 92.11 1750.011 L 85.11 1750.011 L 85.11 1716.011 L 94.11 1716.011 L 94.11 1723.992 L 104.862 1723.992 L 104.862 1730.5 L 1277.352 1730.5 L 1277.352 1723.992 L 1288.103 1723.992 Z " fill="rgb(179,179,179)"/><path d=" M 1300.288 1730.5 C 1300.825 1732.757 1301.103 1735.109 1301.103 1737.522 C 1301.103 1755.183 1286.241 1769.522 1267.934 1769.522 L 1267.934 1769.522 L 114.279 1769.522 C 95.973 1769.522 81.11 1755.183 81.11 1737.522 C 81.11 1735.109 81.388 1732.757 81.926 1730.5 C 85.211 1744.814 98.459 1755.522 114.279 1755.522 L 1267.934 1755.522 L 1267.934 1755.522 C 1283.754 1755.522 1297.002 1744.814 1300.288 1730.5 Z " fill="rgb(238,238,238)"/><path d=" M 1300.288 1697.5 C 1300.825 1699.757 1301.103 1702.109 1301.103 1704.523 C 1301.103 1722.184 1286.241 1736.522 1267.934 1736.522 L 1267.934 1736.522 L 114.279 1736.522 C 95.973 1736.522 81.11 1722.184 81.11 1704.523 C 81.11 1702.109 81.388 1699.757 81.926 1697.5 C 85.211 1711.814 98.459 1722.523 114.279 1722.523 L 1267.934 1722.523 L 1267.934 1722.523 C 1283.754 1722.523 1297.002 1711.814 1300.288 1697.5 Z " fill="rgb(238,238,238)"/><path d=" M 202.234 931.427 L 219.343 922.865 L 603.439 1690.32 L 586.33 1698.882 L 202.234 931.427 Z  M 1180.087 931.427 L 1162.978 922.865 L 778.882 1690.32 L 795.99 1698.882 L 1180.087 931.427 Z " fill-rule="evenodd" fill="rgb(232,232,232)"/><path d=" M 605.161 1684.992 L 580.161 1696.992 Q 618.361 1783.566 690.16 1781.991 Q 761.96 1780.416 802.16 1696.992 L 778.16 1684.992 Q 746.985 1749.066 690.16 1748.991 Q 633.336 1748.917 605.161 1684.992 Z " fill="rgb(195,195,195)"/><g><path d=" M 682.695 1307.475 L 686.91 1365.73 L 691.16 1424.466 L 695.41 1365.73 L 699.626 1307.475 C 730.67 1303.642 755.308 1279.004 759.141 1247.96 L 817.396 1243.745 L 876.131 1239.495 L 817.396 1235.245 L 759.141 1231.029 C 755.308 1199.985 730.67 1175.347 699.626 1171.514 L 695.41 1113.259 L 691.16 1054.524 L 686.91 1113.259 L 682.695 1171.514 C 651.651 1175.347 627.013 1199.985 623.18 1231.029 L 564.925 1235.245 L 506.189 1239.495 L 564.925 1243.745 L 623.18 1247.96 C 627.013 1279.004 651.651 1303.642 682.695 1307.475 Z " fill="rgb(134,134,134)"/><circle vector-effect="non-scaling-stroke" cx="691.1604057351792" cy="1239.4945583707577" r="58.99964485631244" fill="rgb(232,232,232)"/><path d=" M 693.351 1206.995 L 653.211 1210.995 L 646.111 1247.96 L 667.659 1270.994 L 671.832 1247.96 L 669.296 1235.245 L 712.729 1235.245 L 711.21 1247.96 L 714.21 1270.994 L 736.21 1247.96 L 729.873 1210.995 L 693.351 1206.995 Z " fill="rgb(189,177,68)"/><circle vector-effect="non-scaling-stroke" cx="691.1604057351801" cy="1256.8137595592311" r="17.819198178780994" fill="rgb(179,74,74)"/></g><radialGradient id="_rgradient_0" fx="0.5" fy="0.5" cx="0.5" cy="0.5" r="0.5" gradientTransform="matrix(1132.224,0,-6.992,756.033,126.884,558.002)" gradientUnits="userSpaceOnUse"><stop offset="2.608695652173913%" stop-opacity="0.6" style="stop-color:rgb(0,137,213)"/><stop offset="100%" stop-opacity="0" style="stop-color:rgb(255,255,255)"/></radialGradient><path d=" M 123.388 535.278 L 1255.612 535.278 L 1255.612 1336.76 L 123.388 1336.76 L 123.388 535.278 Z " fill="url(#_rgradient_0)"/><g><radialGradient id="_rgradient_1" fx="0.5" fy="0.5" cx="0.5" cy="0.5" r="0.5" gradientTransform="matrix(605.94,0,-5.799,1009.646,28.721,431.196)" gradientUnits="userSpaceOnUse"><stop offset="2.1739130434782608%" stop-opacity="0.38" style="stop-color:rgb(179,42,42)"/><stop offset="100%" stop-opacity="0" style="stop-color:rgb(255,255,255)"/></radialGradient><path d=" M 55.311 535.278 L 602.274 535.278 L 602.274 1336.76 L 55.311 1336.76 L 55.311 535.278 Z " fill="url(#_rgradient_1)"/><radialGradient id="_rgradient_2" fx="0.5" fy="0.5" cx="0.5" cy="0.5" r="0.5" gradientTransform="matrix(605.94,0,-5.799,1009.646,750.137,431.196)" gradientUnits="userSpaceOnUse"><stop offset="2.1739130434782608%" stop-opacity="0.38" style="stop-color:rgb(179,42,42)"/><stop offset="100%" stop-opacity="0" style="stop-color:rgb(255,255,255)"/></radialGradient><path d=" M 776.726 535.278 L 1323.689 535.278 L 1323.689 1336.76 L 776.726 1336.76 L 776.726 535.278 Z " fill="url(#_rgradient_2)"/></g><rect x="622.51" y="479.999" width="138.715" height="79.5" transform="matrix(1,0,0,1,0,0)" fill="rgb(168,168,168)"/><path d=" M 649.082 543.999 L 642.018 549.66 L 592.929 588.998 L 691.107 588.998 L 789.285 588.998 L 740.196 549.66 L 733.131 543.999 L 649.082 543.999 Z " fill-rule="evenodd" fill="rgb(200,199,199)"/><rect x="619.36" y="559.499" width="141.999" height="41.5" transform="matrix(1,0,0,1,0,0)" fill="rgb(68,128,155)"/><rect x="619.36" y="643.998" width="141.999" height="24" transform="matrix(-1,0,0,-1,1380.719,1311.996)" fill="rgb(68,128,155)"/><rect x="619.36" y="564.249" width="141.999" height="32" transform="matrix(1,0,0,1,0,0)" fill="rgb(255,255,255)"/><path d=" M 673.382 543.999 L 656.048 518.571 L 620.989 467.144 L 691.107 467.144 L 761.225 467.144 L 726.166 518.571 L 708.831 543.999 L 673.382 543.999 Z " fill="rgb(235,235,235)"/><rect x="619.36" y="447.999" width="141.999" height="32" transform="matrix(-1,0,0,-1,1380.719,927.998)" fill="rgb(255,255,255)"/><rect x="622.51" y="600.998" width="141.999" height="48" transform="matrix(1,0,0,1,0,0)" fill="rgb(255,255,255)"/><path d=" M 38.23 912.814 L 62.363 930.244 L 1323.686 930.702 L 1349.355 902.836 L 1367.355 792.814 L 7.363 792.814 L 38.23 912.814 Z " fill="rgb(179,179,179)"/><path d=" M 125.801 219.403 L 107.505 253.637 L 75.883 442.999 L 148.796 442.999 L 125.801 219.403 Z " fill="rgb(140,140,140)" vector-effect="non-scaling-stroke" stroke-width="1" stroke="rgb(0,0,0)" stroke-linejoin="miter" stroke-linecap="square" stroke-miterlimit="3"/><path d=" M 1252.726 219.403 L 1271.021 253.637 L 1302.643 442.999 L 1229.73 442.999 L 1252.726 219.403 Z " fill="rgb(140,140,140)" vector-effect="non-scaling-stroke" stroke-width="1" stroke="rgb(0,0,0)" stroke-linejoin="miter" stroke-linecap="square" stroke-miterlimit="3"/><rect x="136.108" y="146.001" width="1108.376" height="271.003" transform="matrix(1,0,0,1,0,0)" fill="rgb(189,177,68)"/><rect x="123.51" y="201.621" width="25.196" height="220.999" transform="matrix(0.999,-0.042,0.042,0.999,-12.983,5.989)" fill="rgb(235,235,235)"/><rect x="1234.357" y="201.621" width="25.196" height="220.999" transform="matrix(0.999,0.042,-0.042,0.999,14.202,-52.071)" fill="rgb(235,235,235)"/><g><path d=" M 90.866 442.999 C 235.039 273.558 449.808 166.001 689.5 166.001 C 929.192 166.001 1143.961 273.558 1288.134 442.999 L 90.866 442.999 Z " fill="rgb(191,191,191)"/><path d=" M 110.762 442.999 C 252.046 282.434 459.027 181.05 689.5 181.05 C 919.973 181.05 1126.954 282.434 1268.238 442.999 L 110.762 442.999 Z " fill="rgb(0,137,213)"/></g><rect x="32.363" y="682.998" width="1316.992" height="103.999" transform="matrix(1,0,0,1,0,0)" fill="rgb(232,232,232)"/><path d=" M 1328.573 741.104 C 1328.599 741.577 1328.612 742.054 1328.612 742.533 L 1328.612 742.533 C 1328.612 756.556 1317.415 767.984 1303.481 768.358 L 1303.481 768.367 L 1303.481 768.367 L 1302.778 768.367 L 1302.778 768.367 L 1162.357 768.367 L 1211.24 699.998 L 1324.686 699.998 L 1328.573 741.104 Z " fill="rgb(200,199,199)"/><path d=" M 420.361 936.019 L 65.532 936.019 C 47.226 936.019 32.363 921.68 32.363 904.019 C 32.363 901.605 32.641 899.254 33.179 896.997 C 36.464 911.311 49.712 922.019 65.532 922.019 L 420.361 922.019 L 420.361 922.019 L 961.358 922.019 L 1316.187 922.019 C 1332.006 922.019 1345.254 911.311 1348.54 896.997 C 1349.078 899.254 1349.355 901.605 1349.355 904.019 C 1349.355 921.68 1334.493 936.019 1316.187 936.019 L 961.358 936.019 L 961.358 936.019 L 420.361 936.019 Z " fill="rgb(232,232,232)"/><rect x="120.756" y="747.998" width="42.507" height="7.89" transform="matrix(1,0,0,1,0,0)" fill="rgb(200,199,199)"/><polygon points="120.756,747.998,142.009,717.998,163.262,747.998" fill="rgb(255,255,255)"/><rect x="174.046" y="747.998" width="42.507" height="7.89" transform="matrix(1,0,0,1,0,0)" fill="rgb(200,199,199)"/><polygon points="174.046,747.998,195.3,717.998,216.553,747.998" fill="rgb(255,255,255)"/><rect x="227.337" y="747.998" width="42.507" height="7.89" transform="matrix(1,0,0,1,0,0)" fill="rgb(200,199,199)"/><polygon points="227.337,747.998,248.59,717.998,269.844,747.998" fill="rgb(255,255,255)"/><rect x="280.628" y="747.998" width="42.507" height="7.89" transform="matrix(1,0,0,1,0,0)" fill="rgb(200,199,199)"/><polygon points="280.628,747.998,301.881,717.998,323.134,747.998" fill="rgb(255,255,255)"/><rect x="333.918" y="747.998" width="42.507" height="7.89" transform="matrix(1,0,0,1,0,0)" fill="rgb(200,199,199)"/><polygon points="333.918,747.998,355.172,717.998,376.425,747.998" fill="rgb(255,255,255)"/><path d=" M 136.546 714.998 L 136.617 714.998 L 136.617 706.998 L 94.11 706.998 L 94.11 714.898 L 94.11 714.998 L 94.181 714.998 L 104.737 729.893 L 115.364 744.888 L 125.99 729.893 L 136.546 714.998 Z " fill="rgb(200,199,199)"/><polygon points="136.617,706.998,115.364,736.998,94.11,706.998" fill="rgb(255,255,255)"/><path d=" M 189.837 714.998 L 189.908 714.998 L 189.908 706.998 L 147.401 706.998 L 147.401 714.898 L 147.401 714.998 L 147.472 714.998 L 158.028 729.893 L 168.654 744.888 L 179.281 729.893 L 189.837 714.998 Z " fill="rgb(200,199,199)"/><polygon points="189.908,706.998,168.654,736.998,147.401,706.998" fill="rgb(255,255,255)"/><path d=" M 243.127 714.998 L 243.198 714.998 L 243.198 706.998 L 200.692 706.998 L 200.692 714.898 L 200.692 714.998 L 200.762 714.998 L 211.318 729.893 L 221.945 744.888 L 232.572 729.893 L 243.127 714.998 Z " fill="rgb(200,199,199)"/><polygon points="243.198,706.998,221.945,736.998,200.692,706.998" fill="rgb(255,255,255)"/><path d=" M 296.418 714.998 L 296.489 714.998 L 296.489 706.998 L 253.982 706.998 L 253.982 714.898 L 253.982 714.998 L 254.053 714.998 L 264.609 729.893 L 275.236 744.888 L 285.862 729.893 L 296.418 714.998 Z " fill="rgb(200,199,199)"/><polygon points="296.489,706.998,275.236,736.998,253.982,706.998" fill="rgb(255,255,255)"/><path d=" M 349.709 714.998 L 349.779 714.998 L 349.779 706.998 L 307.273 706.998 L 307.273 714.898 L 307.273 714.998 L 307.344 714.998 L 317.9 729.893 L 328.526 744.888 L 339.153 729.893 L 349.709 714.998 Z " fill="rgb(200,199,199)"/><polygon points="349.779,706.998,328.526,736.998,307.273,706.998" fill="rgb(255,255,255)"/><rect x="500.734" y="747.998" width="42.507" height="7.89" transform="matrix(1,0,0,1,0,0)" fill="rgb(200,199,199)"/><polygon points="500.734,747.998,521.987,717.998,543.24,747.998" fill="rgb(255,255,255)"/><rect x="554.024" y="747.998" width="42.507" height="7.89" transform="matrix(1,0,0,1,0,0)" fill="rgb(200,199,199)"/><polygon points="554.024,747.998,575.278,717.998,596.531,747.998" fill="rgb(255,255,255)"/><path d=" M 516.524 714.998 L 516.595 714.998 L 516.595 706.998 L 474.088 706.998 L 474.088 714.898 L 474.088 714.998 L 474.159 714.998 L 484.715 729.893 L 495.342 744.888 L 505.968 729.893 L 516.524 714.998 Z " fill="rgb(200,199,199)"/><polygon points="516.595,706.998,495.342,736.998,474.088,706.998" fill="rgb(255,255,255)"/><path d=" M 569.815 714.998 L 569.886 714.998 L 569.886 706.998 L 527.379 706.998 L 527.379 714.898 L 527.379 714.998 L 527.45 714.998 L 538.006 729.893 L 548.632 744.888 L 559.259 729.893 L 569.815 714.998 Z " fill="rgb(200,199,199)"/><polygon points="569.886,706.998,548.632,736.998,527.379,706.998" fill="rgb(255,255,255)"/><path d=" M 623.106 714.998 L 623.176 714.998 L 623.176 706.998 L 580.67 706.998 L 580.67 714.898 L 580.67 714.998 L 580.741 714.998 L 591.296 729.893 L 601.923 744.888 L 612.55 729.893 L 623.106 714.998 Z " fill="rgb(200,199,199)"/><polygon points="623.176,706.998,601.923,736.998,580.67,706.998" fill="rgb(255,255,255)"/><rect x="656.188" y="747.998" width="42.507" height="7.89" transform="matrix(1,0,0,1,0,0)" fill="rgb(200,199,199)"/><polygon points="656.188,747.998,677.442,717.998,698.695,747.998" fill="rgb(255,255,255)"/><rect x="709.479" y="747.998" width="42.507" height="7.89" transform="matrix(1,0,0,1,0,0)" fill="rgb(200,199,199)"/><polygon points="709.479,747.998,730.732,717.998,751.986,747.998" fill="rgb(255,255,255)"/><path d=" M 672.523 714.998 L 672.594 714.998 L 672.594 706.998 L 630.088 706.998 L 630.088 714.898 L 630.088 714.998 L 630.158 714.998 L 640.714 729.893 L 651.341 744.888 L 661.967 729.893 L 672.523 714.998 Z " fill="rgb(200,199,199)"/><polygon points="672.594,706.998,651.341,736.998,630.088,706.998" fill="rgb(255,255,255)"/><path d=" M 725.27 714.998 L 725.34 714.998 L 725.34 706.998 L 682.834 706.998 L 682.834 714.898 L 682.834 714.998 L 682.905 714.998 L 693.46 729.893 L 704.087 744.888 L 714.714 729.893 L 725.27 714.998 Z " fill="rgb(200,199,199)"/><polygon points="725.34,706.998,704.087,736.998,682.834,706.998" fill="rgb(255,255,255)"/><path d=" M 778.56 714.998 L 778.631 714.998 L 778.631 706.998 L 736.124 706.998 L 736.124 714.898 L 736.124 714.998 L 736.195 714.998 L 746.751 729.893 L 757.378 744.888 L 768.004 729.893 L 778.56 714.998 Z " fill="rgb(200,199,199)"/><polygon points="778.631,706.998,757.378,736.998,736.124,706.998" fill="rgb(255,255,255)"/><rect x="876.295" y="747.998" width="42.507" height="7.89" transform="matrix(1,0,0,1,0,0)" fill="rgb(200,199,199)"/><polygon points="876.295,747.998,897.548,717.998,918.801,747.998" fill="rgb(255,255,255)"/><rect x="929.585" y="747.998" width="42.507" height="7.89" transform="matrix(1,0,0,1,0,0)" fill="rgb(200,199,199)"/><polygon points="929.585,747.998,950.839,717.998,972.092,747.998" fill="rgb(255,255,255)"/><rect x="982.876" y="747.998" width="42.507" height="7.89" transform="matrix(1,0,0,1,0,0)" fill="rgb(200,199,199)"/><polygon points="982.876,747.998,1004.129,717.998,1025.383,747.998" fill="rgb(255,255,255)"/><rect x="1036.167" y="747.998" width="42.507" height="7.89" transform="matrix(1,0,0,1,0,0)" fill="rgb(200,199,199)"/><polygon points="1036.167,747.998,1057.42,717.998,1078.673,747.998" fill="rgb(255,255,255)"/><rect x="1089.457" y="747.998" width="42.507" height="7.89" transform="matrix(1,0,0,1,0,0)" fill="rgb(200,199,199)"/><polygon points="1089.457,747.998,1110.711,717.998,1131.964,747.998" fill="rgb(255,255,255)"/><path d=" M 945.376 714.998 L 945.447 714.998 L 945.447 706.998 L 902.94 706.998 L 902.94 714.898 L 902.94 714.998 L 903.011 714.998 L 913.567 729.893 L 924.193 744.888 L 934.82 729.893 L 945.376 714.998 Z " fill="rgb(200,199,199)"/><polygon points="945.447,706.998,924.193,736.998,902.94,706.998" fill="rgb(255,255,255)"/><path d=" M 998.666 714.998 L 998.737 714.998 L 998.737 706.998 L 956.231 706.998 L 956.231 714.898 L 956.231 714.998 L 956.302 714.998 L 966.857 729.893 L 977.484 744.888 L 988.111 729.893 L 998.666 714.998 Z " fill="rgb(200,199,199)"/><polygon points="998.737,706.998,977.484,736.998,956.231,706.998" fill="rgb(255,255,255)"/><path d=" M 1051.957 714.998 L 1052.028 714.998 L 1052.028 706.998 L 1009.521 706.998 L 1009.521 714.898 L 1009.521 714.998 L 1009.592 714.998 L 1020.148 729.893 L 1030.775 744.888 L 1041.401 729.893 L 1051.957 714.998 Z " fill="rgb(200,199,199)"/><polygon points="1052.028,706.998,1030.775,736.998,1009.521,706.998" fill="rgb(255,255,255)"/><path d=" M 1105.248 714.998 L 1105.319 714.998 L 1105.319 706.998 L 1062.812 706.998 L 1062.812 714.898 L 1062.812 714.998 L 1062.883 714.998 L 1073.439 729.893 L 1084.065 744.888 L 1094.692 729.893 L 1105.248 714.998 Z " fill="rgb(200,199,199)"/><polygon points="1105.319,706.998,1084.065,736.998,1062.812,706.998" fill="rgb(255,255,255)"/><path d=" M 1158.538 714.998 L 1158.609 714.998 L 1158.609 706.998 L 1116.103 706.998 L 1116.103 714.898 L 1116.103 714.998 L 1116.173 714.998 L 1126.729 729.893 L 1137.356 744.888 L 1147.983 729.893 L 1158.538 714.998 Z " fill="rgb(200,199,199)"/><polygon points="1158.609,706.998,1137.356,736.998,1116.103,706.998" fill="rgb(255,255,255)"/><path d=" M 459.675 747.998 L 434.084 706.998 L 390.838 706.998 L 390.838 714.898 L 416.429 755.887 L 459.675 755.887 L 459.675 747.998 Z " fill="rgb(200,199,199)"/><path d=" M 459.675 747.998 L 434.084 706.998 L 434.084 706.998 L 390.838 706.998 L 416.429 747.998 L 459.675 747.998 Z " fill="rgb(255,255,255)"/><path d=" M 793.044 747.998 L 818.635 706.998 L 861.882 706.998 L 861.882 714.898 L 836.291 755.887 L 793.044 755.887 L 793.044 747.998 Z " fill="rgb(200,199,199)"/><path d=" M 793.044 747.998 L 818.635 706.998 L 818.635 706.998 L 861.882 706.998 L 836.291 747.998 L 793.044 747.998 Z " fill="rgb(255,255,255)"/><path d=" M 831.323 719.998 L 816.798 719.998 L 816.798 719.998 L 806.934 734.998 L 821.459 734.998 L 821.459 734.998 L 838.128 734.998 L 847.991 719.998 L 833.466 719.998 L 831.323 719.998 Z " fill="rgb(183,86,86)"/><rect x="1298.103" y="720.998" width="7.253" height="43" transform="matrix(1,0,0,1,0,0)" fill="rgb(142,142,142)"/><path d=" M 1319.695 713.337 L 1319.695 727.328 L 1319.695 727.328 C 1319.695 729.905 1317.603 731.998 1315.025 731.998 C 1312.448 731.998 1310.356 729.905 1310.356 727.328 L 1310.356 727.328 L 1310.356 727.328 L 1310.356 713.337 L 1319.695 713.337 Z " fill-rule="evenodd" fill="rgb(117,115,115)"/><circle vector-effect="non-scaling-stroke" cx="1315.0254018344908" cy="713.337309802777" r="4.669764025800532" fill="rgb(142,142,142)"/><path d=" M 1216.638 706.28 L 1287.443 706.28 L 1252.158 762.085 L 1176.443 762.085 L 1216.638 706.28 Z " fill="rgb(255,255,255)"/><g><g><path d=" M 102.805 442.999 L 60.311 671.998 L 616.079 671.998 L 624.931 442.999 L 102.805 442.999 Z " fill="rgb(255,255,255)" vector-effect="non-scaling-stroke" stroke-width="1" stroke="rgb(0,0,0)" stroke-linejoin="miter" stroke-linecap="square" stroke-miterlimit="3"/><rect x="92.813" y="478.999" width="535.494" height="6" transform="matrix(1,0,0,1,0,0)" fill="rgb(200,199,199)"/><rect x="89.437" y="509.199" width="535.494" height="6" transform="matrix(1,0,0,1,0,0)" fill="rgb(200,199,199)"/><rect x="83.058" y="539.399" width="538.498" height="6" transform="matrix(1,0,0,1,0,0)" fill="rgb(200,199,199)"/><rect x="77.83" y="569.599" width="541.278" height="6" transform="matrix(1,0,0,1,0,0)" fill="rgb(200,199,199)"/><rect x="70.116" y="599.798" width="551.439" height="6" transform="matrix(1,0,0,1,0,0)" fill="rgb(200,199,199)"/><rect x="64.311" y="629.998" width="556.72" height="6" transform="matrix(1,0,0,1,0,0)" fill="rgb(200,199,199)"/><path d=" M 616.079 446.999 L 607.108 675.998 L 624.66 675.998 L 631.108 446.999 L 616.079 446.999 Z " fill="rgb(179,179,179)"/><path d=" M 481.308 446.999 L 465.308 671.998 L 490.308 671.998 L 505.308 446.999 L 481.308 446.999 Z " fill="rgb(68,128,155)"/><path d=" M 104.558 451.999 L 64.311 671.998 L 47.311 671.998 L 85.771 451.999 L 104.558 451.999 Z " fill="rgb(179,179,179)"/><path d=" M 218.31 451.999 L 184.31 666.998 L 210.31 666.998 L 241.31 451.999 L 218.31 451.999 Z " fill="rgb(68,128,155)"/><path d=" M 354.309 451.999 L 329.309 666.998 L 342.309 666.998 L 367.309 451.999 L 354.309 451.999 Z " fill="rgb(179,179,179)"/></g><g><path d=" M 1281.079 442.999 L 1323.573 671.998 L 767.805 671.998 L 758.953 442.999 L 1281.079 442.999 Z " fill="rgb(255,255,255)" vector-effect="non-scaling-stroke" stroke-width="1" stroke="rgb(0,0,0)" stroke-linejoin="miter" stroke-linecap="square" stroke-miterlimit="3"/><rect x="755.577" y="478.999" width="535.494" height="6" transform="matrix(1,0,0,1,0,0)" fill="rgb(200,199,199)"/><rect x="758.953" y="509.199" width="535.494" height="6" transform="matrix(1,0,0,1,0,0)" fill="rgb(200,199,199)"/><rect x="762.328" y="539.399" width="538.498" height="6" transform="matrix(1,0,0,1,0,0)" fill="rgb(200,199,199)"/><rect x="764.776" y="569.599" width="541.278" height="6" transform="matrix(1,0,0,1,0,0)" fill="rgb(200,199,199)"/><rect x="762.328" y="599.798" width="551.439" height="6" transform="matrix(1,0,0,1,0,0)" fill="rgb(200,199,199)"/><rect x="762.853" y="629.998" width="556.72" height="6" transform="matrix(1,0,0,1,0,0)" fill="rgb(200,199,199)"/><path d=" M 767.805 446.999 L 776.776 675.998 L 759.224 675.998 L 752.776 446.999 L 767.805 446.999 Z " fill="rgb(179,179,179)"/><path d=" M 902.576 446.999 L 918.576 671.998 L 893.576 671.998 L 878.576 446.999 L 902.576 446.999 Z " fill="rgb(68,128,155)"/><path d=" M 1279.326 451.999 L 1319.573 671.998 L 1336.573 671.998 L 1298.113 451.999 L 1279.326 451.999 Z " fill="rgb(179,179,179)"/><path d=" M 1165.574 451.999 L 1199.574 666.998 L 1173.574 666.998 L 1142.574 451.999 L 1165.574 451.999 Z " fill="rgb(68,128,155)"/><path d=" M 1029.575 451.999 L 1054.575 666.998 L 1041.575 666.998 L 1016.575 451.999 L 1029.575 451.999 Z " fill="rgb(179,179,179)"/></g></g><path d=" M 691.107 257 L 743.359 257 Q 775.025 265.334 793.359 283 Q 811.692 300.667 876.131 359 Q 943.373 417.526 982.358 417 C 1007.024 416.666 1011.691 406 1007.357 393 Q 999.627 369.809 935.358 327 Q 924.358 317.333 907.358 319 C 890.358 320.667 881.905 320 876.131 314 Q 870.358 308 793.359 245.001 Q 766.359 231.334 743.359 231.001 Q 720.359 230.667 691.107 231.001 L 691.107 257 Z " fill="rgb(255,255,255)"/><rect x="691.16" y="233.986" width="50.449" height="20.651" transform="matrix(1,0,0,1,0,0)" fill="rgb(11,59,95)"/><path d=" M 822.16 442.999 C 833.847 421.785 840.499 397.413 840.499 371.5 C 840.499 289.541 773.959 223.001 692 223.001 C 610.041 223.001 543.501 289.541 543.501 371.5 C 543.501 397.413 550.153 421.785 561.84 442.999 L 822.16 442.999 Z " fill="rgb(235,235,235)" fill-opacity="0.5"/><clipPath id="_clipPath_OI9EXtPfQpY0s1VN5L29cZOXRW0vDcjL"><path d=" M 822.16 442.999 C 833.847 421.785 840.499 397.413 840.499 371.5 C 840.499 289.541 773.959 223.001 692 223.001 C 610.041 223.001 543.501 289.541 543.501 371.5 C 543.501 397.413 550.153 421.785 561.84 442.999 L 822.16 442.999 Z " fill="rgb(235,235,235)" fill-opacity="0.5"/></clipPath><g clip-path="url(#_clipPath_OI9EXtPfQpY0s1VN5L29cZOXRW0vDcjL)"><path d=" M 596.979 345.308 C 607.177 302.154 645.978 270 692.229 270 C 738.481 270 777.282 302.154 787.48 345.308 C 862.74 381.025 914.828 457.736 914.828 546.517 C 914.828 669.373 815.085 769.115 692.229 769.115 C 569.374 769.115 469.631 669.373 469.631 546.517 C 469.631 457.736 521.719 381.025 596.979 345.308 Z " fill="none" vector-effect="non-scaling-stroke" stroke-width="3" stroke="rgb(255,255,255)" stroke-opacity="0.66" stroke-linejoin="miter" stroke-linecap="square" stroke-miterlimit="3"/></g><path d=" M 633.389 382.025 C 598.415 393.414 567.978 414.887 545.507 442.999 L 836.706 442.999 C 814.235 414.887 783.798 393.414 748.824 382.025 C 749.342 378.927 749.606 375.744 749.606 372.5 C 749.606 340.213 723.393 314 691.107 314 C 658.82 314 632.607 340.213 632.607 372.5 C 632.607 375.744 632.872 378.927 633.389 382.025 Z " fill="rgb(168,168,168)"/><path d=" M 653.607 372.5 C 653.607 351.803 670.41 335 691.107 335 C 711.803 335 728.606 351.803 728.606 372.5 C 728.606 393.196 711.803 410 691.107 410 C 670.41 410 653.607 393.196 653.607 372.5 Z " fill="rgb(142,142,142)"/><path d=" M 628.274 326.086 L 629.173 329.244 L 630.81 335 L 632.447 329.244 L 633.345 326.086 L 636.504 325.187 L 642.26 323.55 L 636.504 321.913 L 633.345 321.015 L 632.447 317.856 L 630.81 312.1 L 629.173 317.856 L 628.274 321.015 L 625.115 321.913 L 619.36 323.55 L 625.115 325.187 L 628.274 326.086 L 628.274 326.086 L 628.274 326.086 Z  M 666.761 299.086 L 667.659 302.245 L 669.296 308 L 670.933 302.245 L 671.832 299.086 L 674.991 298.187 L 680.746 296.55 L 674.991 294.913 L 671.832 294.015 L 670.933 290.856 L 669.296 285.1 L 667.659 290.856 L 666.761 294.015 L 663.602 294.913 L 657.847 296.55 L 663.602 298.187 L 666.761 299.086 L 666.761 299.086 L 666.761 299.086 Z  M 712.037 299.086 L 712.935 302.245 L 714.572 308 L 716.209 302.245 L 717.108 299.086 L 720.267 298.187 L 726.022 296.55 L 720.267 294.913 L 717.108 294.015 L 716.209 290.856 L 714.572 285.1 L 712.935 290.856 L 712.037 294.015 L 708.878 294.913 L 703.122 296.55 L 708.878 298.187 L 712.037 299.086 L 712.037 299.086 Z  M 750.524 326.455 L 751.422 329.613 L 753.059 335.369 L 754.696 329.613 L 755.594 326.455 L 758.753 325.556 L 764.509 323.919 L 758.753 322.282 L 755.594 321.384 L 754.696 318.225 L 753.059 312.469 L 751.422 318.225 L 750.524 321.384 L 747.365 322.282 L 741.609 323.919 L 747.365 325.556 L 750.524 326.455 Z " fill-rule="evenodd" fill="rgb(255,255,255)"/><rect x="85.11" y="433.999" width="1211.993" height="18" transform="matrix(1,0,0,1,0,0)" fill="rgb(235,235,235)"/><path d=" M 1132.797 166.001 Q 1193.356 168.001 1267.934 230.241 L 1244.873 42.002 L 689.5 29.75 L 134.127 42.002 L 108.002 230.241 Q 184.845 174.001 239.362 166.001 C 580.977 132.646 894.425 143.497 1132.797 166.001 Z " fill="rgb(36,36,36)" vector-effect="non-scaling-stroke" stroke-width="1" stroke="rgb(0,0,0)" stroke-linejoin="miter" stroke-linecap="square" stroke-miterlimit="3"/><path d=" M 219.203 71.002 C 186.203 72.002 181.303 81.906 166.723 97.001 Q 152.204 127.001 145.774 182.001 Q 174.344 153.001 246.203 146.001 C 402.441 127.311 993.519 127.326 1132.797 146.001 Q 1204.656 153.001 1233.226 182.001 Q 1226.796 127.001 1212.277 97.001 C 1197.697 81.906 1192.797 72.002 1159.797 71.002 C 561.141 54.424 760.359 55.002 219.203 71.002 Z " fill="rgb(179,42,42)"/><path d=" M 139.286 15.001 C 529.908 -4.997 896.727 -4.988 1239.714 15.001 L 1239.714 58.784 C 898.045 39.149 531.256 39.168 139.286 58.784 L 139.286 15.001 Z " fill="rgb(210,210,210)"/><path d=" M 1239.714 71.002 L 1252.726 182.001 Q 1287.85 234.001 1290.103 214.001" fill="none" vector-effect="non-scaling-stroke" stroke-width="1" stroke="rgb(0,0,0)" stroke-linejoin="miter" stroke-linecap="square" stroke-miterlimit="3"/><path d=" M 89.688 166.001 Q 93.241 181.501 89.688 223.001 Q 86.135 264.5 82.595 274 L 113.051 274 L 122.655 178.771 L 89.688 166.001 Z  M 1289.312 166.001 Q 1285.759 181.501 1289.312 223.001 Q 1292.865 264.5 1296.405 274 L 1265.949 274 L 1256.345 178.771 L 1289.312 166.001 Z " fill-rule="evenodd" fill="rgb(179,179,179)"/><path d=" M 1291.321 32.874 Q 1243.718 36.14 1243.59 57.916 Q 1243.462 79.692 1246.709 178.771 Q 1281.956 232.121 1287.209 213.612 Q 1292.461 195.103 1291.321 32.874 Z  M 87.679 29.395 Q 135.282 32.661 135.41 54.437 Q 135.538 76.213 132.291 175.292 Q 97.044 228.642 91.791 210.133 Q 86.539 191.624 87.679 29.395 Z " fill-rule="evenodd" fill="rgb(210,210,210)"/><path d=" M 144.057 58.784 Q 139.776 60.734 136.108 58.784 C 119.095 49.74 108.802 41.346 104.808 42.002 Q 87.294 44.877 87.679 71.002 L 68.169 37.002 Q 75.537 19.364 84.169 15.001 Q 95.544 9.252 139.416 9.002 L 144.057 58.784 Z " fill="rgb(179,179,179)"/><path d=" M 1232.261 58.784 Q 1238.852 61.477 1244.446 58.784 C 1260.567 51.025 1270.482 41.393 1274.192 42.002 Q 1291.706 44.877 1291.321 71.002 L 1310.831 37.002 Q 1303.463 19.364 1294.831 15.001 Q 1283.456 9.252 1239.584 9.002 L 1232.261 58.784 Z " fill="rgb(179,179,179)"/><rect x="43.035" y="663.998" width="1297.815" height="27" transform="matrix(1,0,0,1,0,0)" fill="rgb(210,210,210)"/><path d=" M 122.976 236.349 L 38.544 742.861 L 38.604 742.871 L 38.23 749.829 C 38.179 750.319 38.153 750.812 38.151 751.309 L 38.151 751.311 L 38.151 751.311 C 38.151 751.33 38.151 751.349 38.151 751.369 C 38.151 765.339 57.698 776.681 81.774 776.681 L 81.774 776.681 L 101.251 776.681 C 101.251 776.681 101.251 776.681 101.251 776.682 Q 101.251 776.829 721.64 777.124 L 721.64 777.124 Q 1277.749 776.829 1277.749 776.682 C 1277.749 776.681 1277.749 776.681 1277.749 776.681 L 1297.226 776.681 L 1297.226 776.681 C 1321.302 776.681 1340.849 765.339 1340.849 751.369 C 1340.849 751.349 1340.849 751.33 1340.849 751.311 L 1340.849 751.311 L 1340.849 751.309 C 1340.847 750.812 1340.821 750.319 1340.77 749.829 L 1340.396 742.871 L 1340.456 742.861 L 1256.024 236.349 C 1257.321 233.566 1259.02 231.782 1261.117 231.001 C 1261.612 230.722 1262.092 230.468 1262.563 230.241 C 1265.567 228.501 1270.317 228.501 1275.575 231.001 Q 1281.556 233.844 1292.215 253.637 L 1377.115 762.96 C 1378.091 766.428 1378.706 770.047 1378.918 773.773 L 1379 774.267 L 1378.944 774.276 C 1378.981 775.073 1379 775.875 1379 776.682 C 1379 804.622 1356.316 827.307 1328.375 827.307 L 1328.375 827.307 L 1328.375 827.75 L 721.64 827.75 L 657.36 827.75 L 657.36 827.75 L 50.625 827.75 L 50.625 827.307 L 50.625 827.307 C 22.684 827.307 0 804.622 0 776.682 C 0 775.875 0.019 775.073 0.056 774.276 L 0 774.267 L 0.082 773.773 C 0.294 770.047 0.909 766.428 1.885 762.96 L 86.785 253.637 Q 97.444 233.844 103.425 231.001 C 108.683 228.501 113.433 228.501 116.437 230.241 C 116.908 230.468 117.388 230.722 117.883 231.001 C 119.98 231.782 121.679 233.566 122.976 236.349 Z " fill-rule="evenodd" fill="rgb(210,210,210)"/><path d=" M 951.403 111.385 L 951.524 109.902 L 960.882 110.098 L 961.019 112.126 L 961.019 112.126 Q 961.223 113.166 962.313 113.774 L 962.313 113.774 L 962.313 113.774 Q 963.403 114.382 965.157 114.418 L 965.157 114.418 L 965.157 114.418 Q 966.957 114.456 967.982 113.848 L 967.982 113.848 L 967.982 113.848 Q 969.008 113.241 969.031 112.118 L 969.031 112.118 L 969.031 112.118 Q 969.05 111.22 968.384 110.801 L 968.384 110.801 L 968.384 110.801 Q 967.717 110.383 965.522 109.888 L 965.522 109.888 L 962.302 108.922 L 962.302 108.922 Q 961.541 108.726 960.624 108.437 L 960.624 108.437 L 960.624 108.437 Q 959.708 108.148 958.947 107.908 L 958.947 107.908 L 958.947 107.908 Q 952.067 105.472 952.209 98.69 L 952.209 98.69 L 952.209 98.69 Q 952.316 93.57 955.884 90.859 L 955.884 90.859 L 955.884 90.859 Q 959.451 88.148 965.93 88.284 L 965.93 88.284 L 965.93 88.284 Q 979.202 88.562 978.988 98.775 L 978.988 98.775 L 969.855 98.583 L 969.855 98.583 Q 969.893 96.784 968.698 95.814 L 968.698 95.814 L 968.698 95.814 Q 967.503 94.843 965.388 94.799 L 965.388 94.799 L 965.388 94.799 Q 961.654 94.721 961.606 97.011 L 961.606 97.011 L 961.606 97.011 Q 961.582 98.179 962.607 98.65 L 962.607 98.65 L 962.607 98.65 Q 963.052 98.884 963.566 99.052 L 963.566 99.052 L 963.566 99.052 Q 964.08 99.22 964.707 99.368 L 964.707 99.368 L 968.107 100.383 L 971.731 101.403 L 971.731 101.403 Q 973.432 101.888 973.477 101.889 L 973.477 101.889 L 973.477 101.889 Q 974.103 102.081 975.129 102.507 L 975.129 102.507 L 975.129 102.507 Q 977.403 103.543 978.748 105.908 L 978.748 105.908 L 978.748 105.908 Q 980.094 108.273 980.033 111.193 L 980.033 111.193 L 980.033 111.193 Q 979.927 116.268 976.082 119.333 L 976.082 119.333 L 976.082 119.333 Q 974.112 120.955 971.759 121.579 L 971.759 121.579 L 971.759 121.579 Q 969.405 122.204 965.491 122.122 L 965.491 122.122 L 965.491 122.122 Q 957.618 121.957 954.431 119.37 L 954.431 119.37 L 954.431 119.37 Q 952.971 118.169 952.16 116.059 L 952.16 116.059 L 952.16 116.059 Q 951.349 113.949 951.403 111.385 L 951.403 111.385 Z  M 999.366 97.626 L 991.043 97.452 L 991.208 89.579 L 1017.887 90.137 L 1017.722 98.011 L 1009.399 97.836 L 1008.885 122.356 L 998.853 122.146 L 999.366 97.626 Z  M 1053.975 123.3 L 1028.781 122.773 L 1029.459 90.38 L 1054.654 90.908 L 1054.489 98.781 L 1039.327 98.463 L 1039.241 102.602 L 1052.917 102.889 L 1052.762 110.312 L 1039.085 110.026 L 1038.978 115.154 L 1054.139 115.472 L 1053.975 123.3 Z  M 1077.245 123.788 L 1067.212 123.578 L 1067.891 91.185 L 1085.122 91.546 L 1085.122 91.546 Q 1089.936 91.647 1092.715 94.354 L 1092.715 94.354 L 1092.715 94.354 Q 1095.494 97.062 1095.399 101.595 L 1095.399 101.595 L 1095.399 101.595 Q 1095.329 104.917 1093.609 107.508 L 1093.609 107.508 L 1093.609 107.508 Q 1091.89 110.099 1089.218 110.896 L 1089.218 110.896 L 1097.131 124.204 L 1084.533 123.94 L 1079.103 112.439 L 1077.484 112.405 L 1077.245 123.788 Z  M 1082.168 99.361 L 1077.759 99.268 L 1077.646 104.622 L 1082.146 104.716 L 1082.146 104.716 Q 1085.52 104.787 1085.58 101.887 L 1085.58 101.887 L 1085.58 101.887 Q 1085.608 100.593 1084.81 99.996 L 1084.81 99.996 L 1084.81 99.996 Q 1084.012 99.399 1082.168 99.361 L 1082.168 99.361 Z  M 1133.582 124.968 L 1108.388 124.44 L 1109.067 92.047 L 1134.261 92.575 L 1134.096 100.448 L 1118.934 100.131 L 1118.848 104.27 L 1132.525 104.556 L 1132.369 111.98 L 1118.692 111.693 L 1118.585 116.822 L 1133.746 117.14 L 1133.582 124.968 Z  M 1146.529 109.036 L 1146.529 109.036 L 1146.529 109.036 Q 1146.626 104.402 1147.745 101.454 L 1147.745 101.454 L 1147.745 101.454 Q 1148.865 98.507 1151.387 96.265 L 1151.387 96.265 L 1151.387 96.265 Q 1155.837 92.262 1163.53 92.423 L 1163.53 92.423 L 1163.53 92.423 Q 1167.579 92.508 1170.394 93.512 L 1170.394 93.512 L 1170.394 93.512 Q 1173.208 94.516 1175.57 96.749 L 1175.57 96.749 L 1175.57 96.749 Q 1177.931 98.981 1178.945 102.13 L 1178.945 102.13 L 1178.945 102.13 Q 1179.96 105.28 1179.857 110.184 L 1179.857 110.184 L 1179.857 110.184 Q 1179.69 118.147 1175.281 122.331 L 1175.281 122.331 L 1175.281 122.331 Q 1170.873 126.514 1162.82 126.345 L 1162.82 126.345 L 1162.82 126.345 Q 1155.261 126.187 1150.848 121.999 L 1150.848 121.999 L 1150.848 121.999 Q 1148.464 119.788 1147.448 116.706 L 1147.448 116.706 L 1147.448 116.706 Q 1146.433 113.625 1146.529 109.036 Z  M 1163.392 99.037 L 1163.392 99.037 L 1163.392 99.037 Q 1157.318 98.909 1157.101 109.257 L 1157.101 109.257 L 1157.101 109.257 Q 1156.995 114.341 1158.469 117.005 L 1158.469 117.005 L 1158.469 117.005 Q 1159.944 119.669 1162.958 119.732 L 1162.958 119.732 L 1162.958 119.732 Q 1169.032 119.859 1169.249 109.511 L 1169.249 109.511 L 1169.249 109.511 Q 1169.355 104.428 1167.881 101.764 L 1167.881 101.764 L 1167.881 101.764 Q 1166.406 99.1 1163.392 99.037 Z  M 785.711 117.681 L 775.678 117.471 L 776.357 85.078 L 786.389 85.288 L 786.146 96.896 L 795.549 97.093 L 795.792 85.485 L 805.78 85.694 L 805.101 118.087 L 795.069 117.877 L 795.338 105.01 L 785.98 104.814 L 785.711 117.681 Z  M 829.046 118.589 L 819.013 118.379 L 819.692 85.986 L 829.724 86.196 L 829.046 118.589 Z  M 855.077 109.727 L 842.165 109.457 L 842.288 103.608 L 855.2 103.878 L 855.077 109.727 Z  M 877.835 119.611 L 867.802 119.401 L 868.481 87.008 L 893.81 87.538 L 893.645 95.412 L 878.349 95.091 L 878.247 99.95 L 892.059 100.239 L 891.901 107.753 L 878.089 107.463 L 877.835 119.611 Z  M 915.097 120.391 L 905.064 120.181 L 905.742 87.788 L 915.775 87.999 L 915.097 120.391 Z " fill-rule="evenodd" fill="rgb(255,255,255)"/><path d=" M 218.441 125.804 L 210.561 93.562 L 221.313 93.336 L 224.056 108.177 L 224.056 108.177 Q 224.255 109.073 224.451 110.891 L 224.451 110.891 L 224.451 110.891 Q 224.647 112.71 224.684 114.465 L 224.684 114.465 L 224.684 114.465 Q 224.646 112.665 224.749 111.155 L 224.749 111.155 L 224.749 111.155 Q 224.853 109.645 225.087 107.975 L 225.087 107.975 L 226.802 93.221 L 237.555 92.994 L 239.934 107.662 L 239.934 107.662 Q 240.137 108.738 240.334 110.602 L 240.334 110.602 L 240.334 110.602 Q 240.53 112.466 240.565 114.13 L 240.565 114.13 L 240.565 114.13 Q 240.529 112.421 240.632 110.888 L 240.632 110.888 L 240.632 110.888 Q 240.735 109.356 240.928 107.821 L 240.928 107.821 L 243.044 92.879 L 253.841 92.651 L 247.28 125.196 L 235.942 125.435 L 233.341 113.067 L 233.341 113.067 Q 233.039 111.543 232.766 109.253 L 232.766 109.253 L 232.766 109.253 Q 232.493 106.964 232.448 104.849 L 232.448 104.849 L 232.262 108.814 L 231.857 113.098 L 229.824 125.564 L 218.441 125.804 Z  M 292.937 91.828 L 303.015 91.616 L 303.447 112.148 L 303.447 112.148 Q 303.52 115.608 303.189 117.008 L 303.189 117.008 L 303.189 117.008 Q 301.866 124.722 289.089 124.991 L 289.089 124.991 L 289.089 124.991 Q 285.265 125.072 282.552 124.455 L 282.552 124.455 L 282.552 124.455 Q 279.838 123.838 277.782 122.398 L 277.782 122.398 L 277.782 122.398 Q 275.727 120.958 275.012 119.085 L 275.012 119.085 L 275.012 119.085 Q 274.297 117.212 274.204 112.764 L 274.204 112.764 L 273.772 92.232 L 283.804 92.02 L 284.222 111.87 L 284.222 111.87 Q 284.251 113.262 284.403 114.068 L 284.403 114.068 L 284.403 114.068 Q 284.747 115.409 285.979 116.214 L 285.979 116.214 L 285.979 116.214 Q 287.211 117.019 288.921 116.983 L 288.921 116.983 L 288.921 116.983 Q 291.035 116.939 292.359 115.653 L 292.359 115.653 L 292.359 115.653 Q 292.976 115.056 293.184 114.22 L 293.184 114.22 L 293.184 114.22 Q 293.391 113.385 293.355 111.678 L 293.355 111.678 L 292.937 91.828 Z  M 335.595 123.337 L 325.562 123.548 L 324.88 91.156 L 342.111 90.793 L 342.111 90.793 Q 346.925 90.691 349.815 93.28 L 349.815 93.28 L 349.815 93.28 Q 352.705 95.869 352.801 100.402 L 352.801 100.402 L 352.801 100.402 Q 352.87 103.723 351.261 106.384 L 351.261 106.384 L 351.261 106.384 Q 349.652 109.045 347.015 109.954 L 347.015 109.954 L 355.48 122.918 L 342.883 123.184 L 336.975 111.921 L 335.355 111.955 L 335.595 123.337 Z  M 339.487 98.725 L 335.078 98.818 L 335.191 104.171 L 339.69 104.077 L 339.69 104.077 Q 343.064 104.006 343.003 101.106 L 343.003 101.106 L 343.003 101.106 Q 342.976 99.812 342.154 99.249 L 342.154 99.249 L 342.154 99.249 Q 341.332 98.686 339.487 98.725 L 339.487 98.725 Z  M 398.355 122.016 L 374.736 122.513 L 374.054 90.12 L 384.086 89.909 L 384.604 114.474 L 398.19 114.187 L 398.355 122.016 Z  M 428.318 121.385 L 418.286 121.596 L 417.604 89.203 L 427.637 88.992 L 428.318 121.385 Z  M 455.696 96.278 L 447.373 96.453 L 447.207 88.58 L 473.886 88.018 L 474.052 95.892 L 465.729 96.067 L 466.245 120.586 L 456.212 120.798 L 455.696 96.278 Z  M 516.993 119.518 L 493.194 120.019 L 493.031 112.295 L 504.015 95.261 L 493.892 95.474 L 493.726 87.601 L 516.131 87.129 L 516.286 94.494 L 505.131 111.936 L 516.828 111.69 L 516.993 119.518 Z  M 563.108 118.547 L 537.914 119.077 L 537.232 86.685 L 562.426 86.154 L 562.592 94.028 L 547.43 94.347 L 547.517 98.486 L 561.194 98.198 L 561.35 105.621 L 547.673 105.909 L 547.781 111.038 L 562.943 110.719 L 563.108 118.547 Z  M 594.376 117.889 L 584.343 118.1 L 583.661 85.707 L 600.892 85.344 L 600.892 85.344 Q 605.706 85.243 608.596 87.832 L 608.596 87.832 L 608.596 87.832 Q 611.486 90.42 611.582 94.954 L 611.582 94.954 L 611.582 94.954 Q 611.652 98.275 610.042 100.936 L 610.042 100.936 L 610.042 100.936 Q 608.433 103.597 605.796 104.505 L 605.796 104.505 L 614.261 117.47 L 601.664 117.735 L 595.756 106.472 L 594.136 106.506 L 594.376 117.889 Z  M 598.268 93.276 L 593.859 93.369 L 593.972 98.723 L 598.471 98.628 L 598.471 98.628 Q 601.845 98.557 601.784 95.657 L 601.784 95.657 L 601.784 95.657 Q 601.757 94.363 600.935 93.801 L 600.935 93.801 L 600.935 93.801 Q 600.113 93.238 598.268 93.276 L 598.268 93.276 Z " fill-rule="evenodd" fill="rgb(255,255,255)"/><path d=" M 671.595 26.002 L 683.439 59.104 L 666.741 105.775 L 637.462 41.3 L 619.083 43.287 L 638.78 86.662 L 669.246 153.749 L 693.275 86.592 L 717.303 153.749 L 747.769 86.662 L 767.816 42.516 L 749.437 40.529 L 719.808 105.775 L 703.11 59.104 L 714.953 26.002 L 695.283 26.002 L 693.275 31.617 L 691.266 26.002 L 671.595 26.002 Z " fill-rule="evenodd" fill="rgb(179,179,179)"/><path d=" M 260.362 1899.975 L 1121.852 1899.975 L 1219.335 1899.975 L 1239.603 1899.975 L 1239.603 1899.975 L 1239.603 1899.975 C 1257.04 1899.975 1271.885 1888.794 1277.352 1873.216 C 1278.81 1876.851 1279.603 1880.821 1279.603 1884.975 C 1279.603 1902.637 1265.265 1916.975 1247.603 1916.975 L 1247.603 1916.975 L 134.61 1916.975 C 116.949 1916.975 102.61 1902.637 102.61 1884.975 C 102.61 1880.821 103.404 1876.851 104.862 1873.216 C 110.328 1888.794 125.174 1899.975 142.61 1899.975 L 142.61 1899.975 L 142.61 1899.975 L 260.362 1899.975 L 260.362 1899.975 Z " fill="rgb(238,238,238)"/><circle vector-effect="non-scaling-stroke" cx="327.09780900744704" cy="872.5296464950324" r="2.6478494623656275" fill="rgb(255,255,255)"/><circle vector-effect="non-scaling-stroke" cx="471.2024405585712" cy="872.5296464950324" r="2.6478494623656275" fill="rgb(255,255,255)"/><circle vector-effect="non-scaling-stroke" cx="399.1500725388928" cy="855.0441185695075" r="2.6478494623656275" fill="rgb(255,255,255)"/><circle vector-effect="non-scaling-stroke" cx="413.560546142829" cy="855.8009297011946" r="2.6478494623656275" fill="rgb(255,255,255)"/><circle vector-effect="non-scaling-stroke" cx="427.97101974676434" cy="857.6544243248512" r="2.6478494623656275" fill="rgb(255,255,255)"/><circle vector-effect="non-scaling-stroke" cx="442.38149335069966" cy="861.0966286259257" r="2.6478494623656275" fill="rgb(255,255,255)"/><circle vector-effect="non-scaling-stroke" cx="456.791966954635" cy="865.8627576581845" r="2.6478494623656275" fill="rgb(255,255,255)"/><circle vector-effect="non-scaling-stroke" cx="384.7395989349575" cy="855.8009297011946" r="2.6478494623656275" fill="rgb(255,255,255)"/><circle vector-effect="non-scaling-stroke" cx="370.32912533102194" cy="857.6544243248512" r="2.6478494623656275" fill="rgb(255,255,255)"/><circle vector-effect="non-scaling-stroke" cx="355.9186517270866" cy="861.0966286259257" r="2.6478494623656275" fill="rgb(255,255,255)"/><circle vector-effect="non-scaling-stroke" cx="341.5081781231506" cy="865.8627576581845" r="2.6478494623656275" fill="rgb(255,255,255)"/><circle vector-effect="non-scaling-stroke" cx="615.3070721096942" cy="872.5296464950324" r="2.6478494623655706" fill="rgb(255,255,255)"/><circle vector-effect="non-scaling-stroke" cx="543.2547040900167" cy="855.0441185695075" r="2.6478494623655706" fill="rgb(255,255,255)"/><circle vector-effect="non-scaling-stroke" cx="557.665177693952" cy="855.8009297011946" r="2.6478494623655706" fill="rgb(255,255,255)"/><circle vector-effect="non-scaling-stroke" cx="572.0756512978883" cy="857.6544243248512" r="2.6478494623655706" fill="rgb(255,255,255)"/><circle vector-effect="non-scaling-stroke" cx="586.4861249018236" cy="861.0966286259257" r="2.6478494623655706" fill="rgb(255,255,255)"/><circle vector-effect="non-scaling-stroke" cx="600.8965985057589" cy="865.8627576581845" r="2.6478494623655706" fill="rgb(255,255,255)"/><circle vector-effect="non-scaling-stroke" cx="528.8442304860814" cy="855.8009297011946" r="2.6478494623655706" fill="rgb(255,255,255)"/><circle vector-effect="non-scaling-stroke" cx="514.4337568821461" cy="857.6544243248512" r="2.647849462365599" fill="rgb(255,255,255)"/><circle vector-effect="non-scaling-stroke" cx="500.0232832782099" cy="861.0966286259257" r="2.6478494623656275" fill="rgb(255,255,255)"/><circle vector-effect="non-scaling-stroke" cx="485.61280967427456" cy="865.8627576581845" r="2.6478494623656275" fill="rgb(255,255,255)"/><circle vector-effect="non-scaling-stroke" cx="759.4117036608181" cy="872.5296464950324" r="2.6478494623655706" fill="rgb(255,255,255)"/><circle vector-effect="non-scaling-stroke" cx="687.3593356411407" cy="855.0441185695075" r="2.6478494623655706" fill="rgb(255,255,255)"/><circle vector-effect="non-scaling-stroke" cx="701.769809245076" cy="855.8009297011946" r="2.6478494623655706" fill="rgb(255,255,255)"/><circle vector-effect="non-scaling-stroke" cx="716.1802828490108" cy="857.6544243248512" r="2.6478494623655706" fill="rgb(255,255,255)"/><circle vector-effect="non-scaling-stroke" cx="730.5907564529475" cy="861.0966286259257" r="2.6478494623655706" fill="rgb(255,255,255)"/><circle vector-effect="non-scaling-stroke" cx="745.0012300568828" cy="865.8627576581845" r="2.6478494623655706" fill="rgb(255,255,255)"/><circle vector-effect="non-scaling-stroke" cx="672.9488620372053" cy="855.8009297011946" r="2.6478494623655706" fill="rgb(255,255,255)"/><circle vector-effect="non-scaling-stroke" cx="658.5383884332687" cy="857.6544243248512" r="2.6478494623655706" fill="rgb(255,255,255)"/><circle vector-effect="non-scaling-stroke" cx="644.1279148293338" cy="861.0966286259257" r="2.6478494623655706" fill="rgb(255,255,255)"/><circle vector-effect="non-scaling-stroke" cx="629.7174412253985" cy="865.8627576581845" r="2.6478494623655706" fill="rgb(255,255,255)"/><circle vector-effect="non-scaling-stroke" cx="903.5163352119421" cy="872.5296464950324" r="2.6478494623655706" fill="rgb(255,255,255)"/><circle vector-effect="non-scaling-stroke" cx="831.4639671922646" cy="855.0441185695075" r="2.6478494623655706" fill="rgb(255,255,255)"/><circle vector-effect="non-scaling-stroke" cx="845.8744407961999" cy="855.8009297011946" r="2.6478494623655706" fill="rgb(255,255,255)"/><circle vector-effect="non-scaling-stroke" cx="860.2849144001352" cy="857.6544243248512" r="2.6478494623655706" fill="rgb(255,255,255)"/><circle vector-effect="non-scaling-stroke" cx="874.6953880040701" cy="861.0966286259257" r="2.6478494623655706" fill="rgb(255,255,255)"/><circle vector-effect="non-scaling-stroke" cx="889.1058616080068" cy="865.8627576581845" r="2.6478494623655706" fill="rgb(255,255,255)"/><circle vector-effect="non-scaling-stroke" cx="817.0534935883279" cy="855.8009297011946" r="2.6478494623655706" fill="rgb(255,255,255)"/><circle vector-effect="non-scaling-stroke" cx="802.643019984393" cy="857.6544243248512" r="2.6478494623655706" fill="rgb(255,255,255)"/><circle vector-effect="non-scaling-stroke" cx="788.2325463804577" cy="861.0966286259257" r="2.6478494623655706" fill="rgb(255,255,255)"/><circle vector-effect="non-scaling-stroke" cx="773.8220727765224" cy="865.8627576581845" r="2.6478494623655706" fill="rgb(255,255,255)"/><circle vector-effect="non-scaling-stroke" cx="1047.6209667630642" cy="872.5296464950324" r="2.6478494623656843" fill="rgb(255,255,255)"/><circle vector-effect="non-scaling-stroke" cx="975.5685987433872" cy="855.0441185695075" r="2.6478494623655706" fill="rgb(255,255,255)"/><circle vector-effect="non-scaling-stroke" cx="989.9790723473238" cy="855.8009297011946" r="2.6478494623655706" fill="rgb(255,255,255)"/><circle vector-effect="non-scaling-stroke" cx="1004.3895459512592" cy="857.6544243248512" r="2.6478494623655706" fill="rgb(255,255,255)"/><circle vector-effect="non-scaling-stroke" cx="1018.8000195551945" cy="861.0966286259257" r="2.6478494623655706" fill="rgb(255,255,255)"/><circle vector-effect="non-scaling-stroke" cx="1033.2104931591302" cy="865.8627576581845" r="2.6478494623656843" fill="rgb(255,255,255)"/><circle vector-effect="non-scaling-stroke" cx="961.1581251394523" cy="855.8009297011946" r="2.6478494623655706" fill="rgb(255,255,255)"/><circle vector-effect="non-scaling-stroke" cx="946.747651535517" cy="857.6544243248512" r="2.6478494623655706" fill="rgb(255,255,255)"/><circle vector-effect="non-scaling-stroke" cx="932.3371779315817" cy="861.0966286259257" r="2.6478494623655706" fill="rgb(255,255,255)"/><circle vector-effect="non-scaling-stroke" cx="917.926704327645" cy="865.8627576581845" r="2.6478494623655706" fill="rgb(255,255,255)"/><circle vector-effect="non-scaling-stroke" cx="1191.7255983141872" cy="872.5296464950324" r="2.6478494623656843" fill="rgb(255,255,255)"/><circle vector-effect="non-scaling-stroke" cx="1119.6732302945093" cy="855.0441185695075" r="2.6478494623656843" fill="rgb(255,255,255)"/><circle vector-effect="non-scaling-stroke" cx="1134.083703898445" cy="855.8009297011946" r="2.6478494623656843" fill="rgb(255,255,255)"/><circle vector-effect="non-scaling-stroke" cx="1148.4941775023813" cy="857.6544243248512" r="2.6478494623656843" fill="rgb(255,255,255)"/><circle vector-effect="non-scaling-stroke" cx="1162.9046511063166" cy="861.0966286259257" r="2.6478494623656843" fill="rgb(255,255,255)"/><circle vector-effect="non-scaling-stroke" cx="1177.3151247102514" cy="865.8627576581845" r="2.6478494623656843" fill="rgb(255,255,255)"/><circle vector-effect="non-scaling-stroke" cx="1105.2627566905744" cy="855.8009297011946" r="2.6478494623656843" fill="rgb(255,255,255)"/><circle vector-effect="non-scaling-stroke" cx="1090.852283086639" cy="857.6544243248512" r="2.6478494623656843" fill="rgb(255,255,255)"/><circle vector-effect="non-scaling-stroke" cx="1076.4418094827029" cy="861.0966286259257" r="2.6478494623656843" fill="rgb(255,255,255)"/><circle vector-effect="non-scaling-stroke" cx="1062.031335878767" cy="865.8627576581845" r="2.6478494623656843" fill="rgb(255,255,255)"/><circle vector-effect="non-scaling-stroke" cx="182.99317745632334" cy="872.5296464950324" r="2.647849462365599" fill="rgb(255,255,255)"/><circle vector-effect="non-scaling-stroke" cx="255.04544098776955" cy="855.0441185695075" r="2.6478494623656132" fill="rgb(255,255,255)"/><g><circle vector-effect="non-scaling-stroke" cx="255.04549323188576" cy="864.8036178732376" r="2.6478494623656132" fill="rgb(255,255,255)"/><circle vector-effect="non-scaling-stroke" cx="255.04549323188576" cy="879.8953013269189" r="2.6478494623656132" fill="rgb(255,255,255)"/><circle vector-effect="non-scaling-stroke" cx="255.04549323188576" cy="872.3494596000784" r="2.6478494623656132" fill="rgb(255,255,255)"/><path d=" M 262.591 869.702 C 264.053 869.702 265.239 870.888 265.239 872.349 C 265.239 873.811 264.053 874.997 262.591 874.997 C 261.13 874.997 259.943 873.811 259.943 872.349 C 259.943 870.888 261.13 869.702 262.591 869.702 Z " fill="rgb(255,255,255)"/><path d=" M 270.137 869.702 C 271.599 869.702 272.785 870.888 272.785 872.349 C 272.785 873.811 271.599 874.997 270.137 874.997 C 268.676 874.997 267.489 873.811 267.489 872.349 C 267.489 870.888 268.676 869.702 270.137 869.702 Z " fill="rgb(255,255,255)"/><path d=" M 239.954 869.702 C 241.415 869.702 242.602 870.888 242.602 872.349 C 242.602 873.811 241.415 874.997 239.954 874.997 C 238.492 874.997 237.306 873.811 237.306 872.349 C 237.306 870.888 238.492 869.702 239.954 869.702 Z " fill="rgb(255,255,255)"/><path d=" M 247.5 869.702 C 248.961 869.702 250.148 870.888 250.148 872.349 C 250.148 873.811 248.961 874.997 247.5 874.997 C 246.038 874.997 244.852 873.811 244.852 872.349 C 244.852 870.888 246.038 869.702 247.5 869.702 Z " fill="rgb(255,255,255)"/></g><g><circle vector-effect="non-scaling-stroke" cx="399.1501247830097" cy="864.8036178732376" r="2.6478494623656275" fill="rgb(255,255,255)"/><circle vector-effect="non-scaling-stroke" cx="399.1501247830097" cy="879.8953013269189" r="2.6478494623656275" fill="rgb(255,255,255)"/><circle vector-effect="non-scaling-stroke" cx="399.1501247830097" cy="872.3494596000784" r="2.6478494623656275" fill="rgb(255,255,255)"/><path d=" M 406.696 869.702 C 408.157 869.702 409.344 870.888 409.344 872.349 C 409.344 873.811 408.157 874.997 406.696 874.997 C 405.235 874.997 404.048 873.811 404.048 872.349 C 404.048 870.888 405.235 869.702 406.696 869.702 Z " fill="rgb(255,255,255)"/><path d=" M 414.242 869.702 C 415.703 869.702 416.89 870.888 416.89 872.349 C 416.89 873.811 415.703 874.997 414.242 874.997 C 412.78 874.997 411.594 873.811 411.594 872.349 C 411.594 870.888 412.78 869.702 414.242 869.702 Z " fill="rgb(255,255,255)"/><path d=" M 384.058 869.702 C 385.52 869.702 386.706 870.888 386.706 872.349 C 386.706 873.811 385.52 874.997 384.058 874.997 C 382.597 874.997 381.411 873.811 381.411 872.349 C 381.411 870.888 382.597 869.702 384.058 869.702 Z " fill="rgb(255,255,255)"/><path d=" M 391.604 869.702 C 393.066 869.702 394.252 870.888 394.252 872.349 C 394.252 873.811 393.066 874.997 391.604 874.997 C 390.143 874.997 388.956 873.811 388.956 872.349 C 388.956 870.888 390.143 869.702 391.604 869.702 Z " fill="rgb(255,255,255)"/></g><g><circle vector-effect="non-scaling-stroke" cx="543.2547563341332" cy="864.8036178732376" r="2.6478494623655706" fill="rgb(255,255,255)"/><circle vector-effect="non-scaling-stroke" cx="543.2547563341332" cy="879.8953013269189" r="2.6478494623655706" fill="rgb(255,255,255)"/><circle vector-effect="non-scaling-stroke" cx="543.2547563341332" cy="872.3494596000784" r="2.6478494623655706" fill="rgb(255,255,255)"/><path d=" M 550.801 869.702 C 552.262 869.702 553.448 870.888 553.448 872.349 C 553.448 873.811 552.262 874.997 550.801 874.997 C 549.339 874.997 548.153 873.811 548.153 872.349 C 548.153 870.888 549.339 869.702 550.801 869.702 Z " fill="rgb(255,255,255)"/><path d=" M 558.346 869.702 C 559.808 869.702 560.994 870.888 560.994 872.349 C 560.994 873.811 559.808 874.997 558.346 874.997 C 556.885 874.997 555.699 873.811 555.699 872.349 C 555.699 870.888 556.885 869.702 558.346 869.702 Z " fill="rgb(255,255,255)"/><path d=" M 528.163 869.702 C 529.624 869.702 530.811 870.888 530.811 872.349 C 530.811 873.811 529.624 874.997 528.163 874.997 C 526.702 874.997 525.515 873.811 525.515 872.349 C 525.515 870.888 526.702 869.702 528.163 869.702 Z " fill="rgb(255,255,255)"/><path d=" M 535.709 869.702 C 537.17 869.702 538.357 870.888 538.357 872.349 C 538.357 873.811 537.17 874.997 535.709 874.997 C 534.248 874.997 533.061 873.811 533.061 872.349 C 533.061 870.888 534.248 869.702 535.709 869.702 Z " fill="rgb(255,255,255)"/></g><g><circle vector-effect="non-scaling-stroke" cx="687.3593878852566" cy="864.8036178732376" r="2.6478494623655706" fill="rgb(255,255,255)"/><circle vector-effect="non-scaling-stroke" cx="687.3593878852566" cy="879.8953013269189" r="2.6478494623655706" fill="rgb(255,255,255)"/><circle vector-effect="non-scaling-stroke" cx="687.3593878852566" cy="872.3494596000784" r="2.6478494623655706" fill="rgb(255,255,255)"/><path d=" M 694.905 869.702 C 696.367 869.702 697.553 870.888 697.553 872.349 C 697.553 873.811 696.367 874.997 694.905 874.997 C 693.444 874.997 692.257 873.811 692.257 872.349 C 692.257 870.888 693.444 869.702 694.905 869.702 Z " fill="rgb(255,255,255)"/><path d=" M 702.451 869.702 C 703.912 869.702 705.099 870.888 705.099 872.349 C 705.099 873.811 703.912 874.997 702.451 874.997 C 700.99 874.997 699.803 873.811 699.803 872.349 C 699.803 870.888 700.99 869.702 702.451 869.702 Z " fill="rgb(255,255,255)"/><path d=" M 672.268 869.702 C 673.729 869.702 674.916 870.888 674.916 872.349 C 674.916 873.811 673.729 874.997 672.268 874.997 C 670.806 874.997 669.62 873.811 669.62 872.349 C 669.62 870.888 670.806 869.702 672.268 869.702 Z " fill="rgb(255,255,255)"/><path d=" M 679.814 869.702 C 681.275 869.702 682.461 870.888 682.461 872.349 C 682.461 873.811 681.275 874.997 679.814 874.997 C 678.352 874.997 677.166 873.811 677.166 872.349 C 677.166 870.888 678.352 869.702 679.814 869.702 Z " fill="rgb(255,255,255)"/></g><g><circle vector-effect="non-scaling-stroke" cx="831.4640194363806" cy="864.8036178732376" r="2.6478494623655706" fill="rgb(255,255,255)"/><circle vector-effect="non-scaling-stroke" cx="831.4640194363806" cy="879.8953013269189" r="2.6478494623655706" fill="rgb(255,255,255)"/><circle vector-effect="non-scaling-stroke" cx="831.4640194363806" cy="872.3494596000784" r="2.6478494623655706" fill="rgb(255,255,255)"/><path d=" M 839.01 869.702 C 840.471 869.702 841.658 870.888 841.658 872.349 C 841.658 873.811 840.471 874.997 839.01 874.997 C 837.548 874.997 836.362 873.811 836.362 872.349 C 836.362 870.888 837.548 869.702 839.01 869.702 Z " fill="rgb(255,255,255)"/><path d=" M 846.556 869.702 C 848.017 869.702 849.204 870.888 849.204 872.349 C 849.204 873.811 848.017 874.997 846.556 874.997 C 845.094 874.997 843.908 873.811 843.908 872.349 C 843.908 870.888 845.094 869.702 846.556 869.702 Z " fill="rgb(255,255,255)"/><path d=" M 816.372 869.702 C 817.834 869.702 819.02 870.888 819.02 872.349 C 819.02 873.811 817.834 874.997 816.372 874.997 C 814.911 874.997 813.724 873.811 813.724 872.349 C 813.724 870.888 814.911 869.702 816.372 869.702 Z " fill="rgb(255,255,255)"/><path d=" M 823.918 869.702 C 825.38 869.702 826.566 870.888 826.566 872.349 C 826.566 873.811 825.38 874.997 823.918 874.997 C 822.457 874.997 821.27 873.811 821.27 872.349 C 821.27 870.888 822.457 869.702 823.918 869.702 Z " fill="rgb(255,255,255)"/></g><g><circle vector-effect="non-scaling-stroke" cx="975.5686509875036" cy="864.8036178732376" r="2.6478494623655706" fill="rgb(255,255,255)"/><circle vector-effect="non-scaling-stroke" cx="975.5686509875036" cy="879.8953013269189" r="2.6478494623655706" fill="rgb(255,255,255)"/><circle vector-effect="non-scaling-stroke" cx="975.5686509875036" cy="872.3494596000784" r="2.6478494623655706" fill="rgb(255,255,255)"/><path d=" M 983.114 869.702 C 984.576 869.702 985.762 870.888 985.762 872.349 C 985.762 873.811 984.576 874.997 983.114 874.997 C 981.653 874.997 980.467 873.811 980.467 872.349 C 980.467 870.888 981.653 869.702 983.114 869.702 Z " fill="rgb(255,255,255)"/><path d=" M 990.66 869.702 C 992.122 869.702 993.308 870.888 993.308 872.349 C 993.308 873.811 992.122 874.997 990.66 874.997 C 989.199 874.997 988.012 873.811 988.012 872.349 C 988.012 870.888 989.199 869.702 990.66 869.702 Z " fill="rgb(255,255,255)"/><path d=" M 960.477 869.702 C 961.938 869.702 963.125 870.888 963.125 872.349 C 963.125 873.811 961.938 874.997 960.477 874.997 C 959.016 874.997 957.829 873.811 957.829 872.349 C 957.829 870.888 959.016 869.702 960.477 869.702 Z " fill="rgb(255,255,255)"/><path d=" M 968.023 869.702 C 969.484 869.702 970.671 870.888 970.671 872.349 C 970.671 873.811 969.484 874.997 968.023 874.997 C 966.561 874.997 965.375 873.811 965.375 872.349 C 965.375 870.888 966.561 869.702 968.023 869.702 Z " fill="rgb(255,255,255)"/></g><g><circle vector-effect="non-scaling-stroke" cx="1119.6732825386257" cy="864.8036178732376" r="2.6478494623656843" fill="rgb(255,255,255)"/><circle vector-effect="non-scaling-stroke" cx="1119.6732825386257" cy="879.8953013269189" r="2.6478494623656843" fill="rgb(255,255,255)"/><circle vector-effect="non-scaling-stroke" cx="1119.6732825386257" cy="872.3494596000784" r="2.6478494623656843" fill="rgb(255,255,255)"/><path d=" M 1127.219 869.702 C 1128.681 869.702 1129.867 870.888 1129.867 872.349 C 1129.867 873.811 1128.681 874.997 1127.219 874.997 C 1125.758 874.997 1124.571 873.811 1124.571 872.349 C 1124.571 870.888 1125.758 869.702 1127.219 869.702 Z " fill="rgb(255,255,255)"/><path d=" M 1134.765 869.702 C 1136.226 869.702 1137.413 870.888 1137.413 872.349 C 1137.413 873.811 1136.226 874.997 1134.765 874.997 C 1133.304 874.997 1132.117 873.811 1132.117 872.349 C 1132.117 870.888 1133.304 869.702 1134.765 869.702 Z " fill="rgb(255,255,255)"/><path d=" M 1104.582 869.702 C 1106.043 869.702 1107.229 870.888 1107.229 872.349 C 1107.229 873.811 1106.043 874.997 1104.582 874.997 C 1103.12 874.997 1101.934 873.811 1101.934 872.349 C 1101.934 870.888 1103.12 869.702 1104.582 869.702 Z " fill="rgb(255,255,255)"/><path d=" M 1112.127 869.702 C 1113.589 869.702 1114.775 870.888 1114.775 872.349 C 1114.775 873.811 1113.589 874.997 1112.127 874.997 C 1110.666 874.997 1109.48 873.811 1109.48 872.349 C 1109.48 870.888 1110.666 869.702 1112.127 869.702 Z " fill="rgb(255,255,255)"/></g><circle vector-effect="non-scaling-stroke" cx="269.45591459170487" cy="855.8009297011946" r="2.6478494623656275" fill="rgb(255,255,255)"/><circle vector-effect="non-scaling-stroke" cx="283.8663881956404" cy="857.6544243248512" r="2.6478494623656275" fill="rgb(255,255,255)"/><circle vector-effect="non-scaling-stroke" cx="298.2768617995757" cy="861.0966286259257" r="2.6478494623656275" fill="rgb(255,255,255)"/><circle vector-effect="non-scaling-stroke" cx="312.6873354035117" cy="865.8627576581845" r="2.6478494623656275" fill="rgb(255,255,255)"/><circle vector-effect="non-scaling-stroke" cx="240.63496738383355" cy="855.8009297011946" r="2.647849462365599" fill="rgb(255,255,255)"/><circle vector-effect="non-scaling-stroke" cx="226.22449377989824" cy="857.6544243248512" r="2.647849462365599" fill="rgb(255,255,255)"/><circle vector-effect="non-scaling-stroke" cx="211.8140201759627" cy="861.0966286259257" r="2.647849462365599" fill="rgb(255,255,255)"/><circle vector-effect="non-scaling-stroke" cx="197.40354657202738" cy="865.8627576581845" r="2.647849462365599" fill="rgb(255,255,255)"/><path d=" M 978.217 889.655 C 978.217 891.116 977.03 892.303 975.569 892.303 C 974.107 892.303 972.921 891.116 972.921 889.655 C 972.921 888.193 974.107 887.007 975.569 887.007 C 977.03 887.007 978.217 888.193 978.217 889.655 Z " fill="rgb(255,255,255)"/><path d=" M 963.806 888.898 C 963.806 890.359 962.62 891.546 961.158 891.546 C 959.697 891.546 958.51 890.359 958.51 888.898 C 958.51 887.437 959.697 886.25 961.158 886.25 C 962.62 886.25 963.806 887.437 963.806 888.898 Z " fill="rgb(255,255,255)"/><path d=" M 949.396 887.044 C 949.396 888.506 948.209 889.692 946.748 889.692 C 945.286 889.692 944.1 888.506 944.1 887.044 C 944.1 885.583 945.286 884.397 946.748 884.397 C 948.209 884.397 949.396 885.583 949.396 887.044 Z " fill="rgb(255,255,255)"/><path d=" M 934.985 883.602 C 934.985 885.064 933.799 886.25 932.337 886.25 C 930.876 886.25 929.689 885.064 929.689 883.602 C 929.689 882.141 930.876 880.954 932.337 880.954 C 933.799 880.954 934.985 882.141 934.985 883.602 Z " fill="rgb(255,255,255)"/><path d=" M 920.575 878.836 C 920.575 880.298 919.388 881.484 917.927 881.484 C 916.465 881.484 915.279 880.298 915.279 878.836 C 915.279 877.375 916.465 876.188 917.927 876.188 C 919.388 876.188 920.575 877.375 920.575 878.836 Z " fill="rgb(255,255,255)"/><path d=" M 987.331 888.898 C 987.331 890.359 988.518 891.546 989.979 891.546 C 991.441 891.546 992.627 890.359 992.627 888.898 C 992.627 887.437 991.441 886.25 989.979 886.25 C 988.518 886.25 987.331 887.437 987.331 888.898 Z " fill="rgb(255,255,255)"/><path d=" M 1001.742 887.044 C 1001.742 888.506 1002.928 889.692 1004.39 889.692 C 1005.851 889.692 1007.037 888.506 1007.037 887.044 C 1007.037 885.583 1005.851 884.397 1004.39 884.397 C 1002.928 884.397 1001.742 885.583 1001.742 887.044 Z " fill="rgb(255,255,255)"/><path d=" M 1016.152 883.602 C 1016.152 885.064 1017.339 886.25 1018.8 886.25 C 1020.262 886.25 1021.448 885.064 1021.448 883.602 C 1021.448 882.141 1020.262 880.954 1018.8 880.954 C 1017.339 880.954 1016.152 882.141 1016.152 883.602 Z " fill="rgb(255,255,255)"/><path d=" M 1030.563 878.836 C 1030.563 880.298 1031.749 881.484 1033.211 881.484 C 1034.672 881.484 1035.858 880.298 1035.858 878.836 C 1035.858 877.375 1034.672 876.188 1033.211 876.188 C 1031.749 876.188 1030.563 877.375 1030.563 878.836 Z " fill="rgb(255,255,255)"/><path d=" M 834.112 889.655 C 834.112 891.116 832.925 892.303 831.464 892.303 C 830.003 892.303 828.816 891.116 828.816 889.655 C 828.816 888.193 830.003 887.007 831.464 887.007 C 832.925 887.007 834.112 888.193 834.112 889.655 Z " fill="rgb(255,255,255)"/><path d=" M 819.701 888.898 C 819.701 890.359 818.515 891.546 817.054 891.546 C 815.592 891.546 814.406 890.359 814.406 888.898 C 814.406 887.437 815.592 886.25 817.054 886.25 C 818.515 886.25 819.701 887.437 819.701 888.898 Z " fill="rgb(255,255,255)"/><path d=" M 805.291 887.044 C 805.291 888.506 804.105 889.692 802.643 889.692 C 801.182 889.692 799.995 888.506 799.995 887.044 C 799.995 885.583 801.182 884.397 802.643 884.397 C 804.105 884.397 805.291 885.583 805.291 887.044 Z " fill="rgb(255,255,255)"/><path d=" M 790.881 883.602 C 790.881 885.064 789.694 886.25 788.233 886.25 C 786.771 886.25 785.585 885.064 785.585 883.602 C 785.585 882.141 786.771 880.954 788.233 880.954 C 789.694 880.954 790.881 882.141 790.881 883.602 Z " fill="rgb(255,255,255)"/><path d=" M 776.47 878.836 C 776.47 880.298 775.284 881.484 773.822 881.484 C 772.361 881.484 771.174 880.298 771.174 878.836 C 771.174 877.375 772.361 876.188 773.822 876.188 C 775.284 876.188 776.47 877.375 776.47 878.836 Z " fill="rgb(255,255,255)"/><path d=" M 843.227 888.898 C 843.227 890.359 844.413 891.546 845.875 891.546 C 847.336 891.546 848.522 890.359 848.522 888.898 C 848.522 887.437 847.336 886.25 845.875 886.25 C 844.413 886.25 843.227 887.437 843.227 888.898 Z " fill="rgb(255,255,255)"/><path d=" M 857.637 887.044 C 857.637 888.506 858.824 889.692 860.285 889.692 C 861.746 889.692 862.933 888.506 862.933 887.044 C 862.933 885.583 861.746 884.397 860.285 884.397 C 858.824 884.397 857.637 885.583 857.637 887.044 Z " fill="rgb(255,255,255)"/><path d=" M 872.048 883.602 C 872.048 885.064 873.234 886.25 874.695 886.25 C 876.157 886.25 877.343 885.064 877.343 883.602 C 877.343 882.141 876.157 880.954 874.695 880.954 C 873.234 880.954 872.048 882.141 872.048 883.602 Z " fill="rgb(255,255,255)"/><path d=" M 886.458 878.836 C 886.458 880.298 887.645 881.484 889.106 881.484 C 890.567 881.484 891.754 880.298 891.754 878.836 C 891.754 877.375 890.567 876.188 889.106 876.188 C 887.645 876.188 886.458 877.375 886.458 878.836 Z " fill="rgb(255,255,255)"/><path d=" M 690.007 889.655 C 690.007 891.116 688.821 892.303 687.359 892.303 C 685.898 892.303 684.712 891.116 684.712 889.655 C 684.712 888.193 685.898 887.007 687.359 887.007 C 688.821 887.007 690.007 888.193 690.007 889.655 Z " fill="rgb(255,255,255)"/><path d=" M 675.597 888.898 C 675.597 890.359 674.41 891.546 672.949 891.546 C 671.488 891.546 670.301 890.359 670.301 888.898 C 670.301 887.437 671.488 886.25 672.949 886.25 C 674.41 886.25 675.597 887.437 675.597 888.898 Z " fill="rgb(255,255,255)"/><path d=" M 661.186 887.044 C 661.186 888.506 660 889.692 658.538 889.692 C 657.077 889.692 655.891 888.506 655.891 887.044 C 655.891 885.583 657.077 884.397 658.538 884.397 C 660 884.397 661.186 885.583 661.186 887.044 Z " fill="rgb(255,255,255)"/><path d=" M 646.776 883.602 C 646.776 885.064 645.589 886.25 644.128 886.25 C 642.667 886.25 641.48 885.064 641.48 883.602 C 641.48 882.141 642.667 880.954 644.128 880.954 C 645.589 880.954 646.776 882.141 646.776 883.602 Z " fill="rgb(255,255,255)"/><path d=" M 632.365 878.836 C 632.365 880.298 631.179 881.484 629.718 881.484 C 628.256 881.484 627.07 880.298 627.07 878.836 C 627.07 877.375 628.256 876.188 629.718 876.188 C 631.179 876.188 632.365 877.375 632.365 878.836 Z " fill="rgb(255,255,255)"/><path d=" M 699.122 888.898 C 699.122 890.359 700.309 891.546 701.77 891.546 C 703.231 891.546 704.418 890.359 704.418 888.898 C 704.418 887.437 703.231 886.25 701.77 886.25 C 700.309 886.25 699.122 887.437 699.122 888.898 Z " fill="rgb(255,255,255)"/><path d=" M 713.533 887.044 C 713.533 888.506 714.719 889.692 716.18 889.692 C 717.642 889.692 718.828 888.506 718.828 887.044 C 718.828 885.583 717.642 884.397 716.18 884.397 C 714.719 884.397 713.533 885.583 713.533 887.044 Z " fill="rgb(255,255,255)"/><path d=" M 727.943 883.602 C 727.943 885.064 729.129 886.25 730.591 886.25 C 732.052 886.25 733.239 885.064 733.239 883.602 C 733.239 882.141 732.052 880.954 730.591 880.954 C 729.129 880.954 727.943 882.141 727.943 883.602 Z " fill="rgb(255,255,255)"/><path d=" M 742.353 878.836 C 742.353 880.298 743.54 881.484 745.001 881.484 C 746.463 881.484 747.649 880.298 747.649 878.836 C 747.649 877.375 746.463 876.188 745.001 876.188 C 743.54 876.188 742.353 877.375 742.353 878.836 Z " fill="rgb(255,255,255)"/><path d=" M 545.903 889.655 C 545.903 891.116 544.716 892.303 543.255 892.303 C 541.793 892.303 540.607 891.116 540.607 889.655 C 540.607 888.193 541.793 887.007 543.255 887.007 C 544.716 887.007 545.903 888.193 545.903 889.655 Z " fill="rgb(255,255,255)"/><path d=" M 531.492 888.898 C 531.492 890.359 530.306 891.546 528.844 891.546 C 527.383 891.546 526.196 890.359 526.196 888.898 C 526.196 887.437 527.383 886.25 528.844 886.25 C 530.306 886.25 531.492 887.437 531.492 888.898 Z " fill="rgb(255,255,255)"/><path d=" M 517.082 887.044 C 517.082 888.506 515.895 889.692 514.434 889.692 C 512.972 889.692 511.786 888.506 511.786 887.044 C 511.786 885.583 512.972 884.397 514.434 884.397 C 515.895 884.397 517.082 885.583 517.082 887.044 Z " fill="rgb(255,255,255)"/><path d=" M 502.671 883.602 C 502.671 885.064 501.485 886.25 500.023 886.25 C 498.562 886.25 497.376 885.064 497.376 883.602 C 497.376 882.141 498.562 880.954 500.023 880.954 C 501.485 880.954 502.671 882.141 502.671 883.602 Z " fill="rgb(255,255,255)"/><path d=" M 488.261 878.836 C 488.261 880.298 487.074 881.484 485.613 881.484 C 484.152 881.484 482.965 880.298 482.965 878.836 C 482.965 877.375 484.152 876.188 485.613 876.188 C 487.074 876.188 488.261 877.375 488.261 878.836 Z " fill="rgb(255,255,255)"/><path d=" M 555.017 888.898 C 555.017 890.359 556.204 891.546 557.665 891.546 C 559.127 891.546 560.313 890.359 560.313 888.898 C 560.313 887.437 559.127 886.25 557.665 886.25 C 556.204 886.25 555.017 887.437 555.017 888.898 Z " fill="rgb(255,255,255)"/><path d=" M 569.428 887.044 C 569.428 888.506 570.614 889.692 572.076 889.692 C 573.537 889.692 574.724 888.506 574.724 887.044 C 574.724 885.583 573.537 884.397 572.076 884.397 C 570.614 884.397 569.428 885.583 569.428 887.044 Z " fill="rgb(255,255,255)"/><path d=" M 583.838 883.602 C 583.838 885.064 585.025 886.25 586.486 886.25 C 587.948 886.25 589.134 885.064 589.134 883.602 C 589.134 882.141 587.948 880.954 586.486 880.954 C 585.025 880.954 583.838 882.141 583.838 883.602 Z " fill="rgb(255,255,255)"/><path d=" M 598.249 878.836 C 598.249 880.298 599.435 881.484 600.897 881.484 C 602.358 881.484 603.545 880.298 603.545 878.836 C 603.545 877.375 602.358 876.188 600.897 876.188 C 599.435 876.188 598.249 877.375 598.249 878.836 Z " fill="rgb(255,255,255)"/><path d=" M 401.798 889.655 C 401.798 891.116 400.612 892.303 399.15 892.303 C 397.689 892.303 396.502 891.116 396.502 889.655 C 396.502 888.193 397.689 887.007 399.15 887.007 C 400.612 887.007 401.798 888.193 401.798 889.655 Z " fill="rgb(255,255,255)"/><path d=" M 387.388 888.898 C 387.388 890.359 386.201 891.546 384.74 891.546 C 383.278 891.546 382.092 890.359 382.092 888.898 C 382.092 887.437 383.278 886.25 384.74 886.25 C 386.201 886.25 387.388 887.437 387.388 888.898 Z " fill="rgb(255,255,255)"/><path d=" M 372.977 887.044 C 372.977 888.506 371.791 889.692 370.329 889.692 C 368.868 889.692 367.681 888.506 367.681 887.044 C 367.681 885.583 368.868 884.397 370.329 884.397 C 371.791 884.397 372.977 885.583 372.977 887.044 Z " fill="rgb(255,255,255)"/><path d=" M 358.567 883.602 C 358.567 885.064 357.38 886.25 355.919 886.25 C 354.457 886.25 353.271 885.064 353.271 883.602 C 353.271 882.141 354.457 880.954 355.919 880.954 C 357.38 880.954 358.567 882.141 358.567 883.602 Z " fill="rgb(255,255,255)"/><path d=" M 344.156 878.836 C 344.156 880.298 342.97 881.484 341.508 881.484 C 340.047 881.484 338.86 880.298 338.86 878.836 C 338.86 877.375 340.047 876.188 341.508 876.188 C 342.97 876.188 344.156 877.375 344.156 878.836 Z " fill="rgb(255,255,255)"/><path d=" M 410.913 888.898 C 410.913 890.359 412.099 891.546 413.561 891.546 C 415.022 891.546 416.209 890.359 416.209 888.898 C 416.209 887.437 415.022 886.25 413.561 886.25 C 412.099 886.25 410.913 887.437 410.913 888.898 Z " fill="rgb(255,255,255)"/><path d=" M 425.323 887.044 C 425.323 888.506 426.51 889.692 427.971 889.692 C 429.433 889.692 430.619 888.506 430.619 887.044 C 430.619 885.583 429.433 884.397 427.971 884.397 C 426.51 884.397 425.323 885.583 425.323 887.044 Z " fill="rgb(255,255,255)"/><path d=" M 439.734 883.602 C 439.734 885.064 440.92 886.25 442.382 886.25 C 443.843 886.25 445.029 885.064 445.029 883.602 C 445.029 882.141 443.843 880.954 442.382 880.954 C 440.92 880.954 439.734 882.141 439.734 883.602 Z " fill="rgb(255,255,255)"/><path d=" M 454.144 878.836 C 454.144 880.298 455.331 881.484 456.792 881.484 C 458.253 881.484 459.44 880.298 459.44 878.836 C 459.44 877.375 458.253 876.188 456.792 876.188 C 455.331 876.188 454.144 877.375 454.144 878.836 Z " fill="rgb(255,255,255)"/><path d=" M 257.693 889.655 C 257.693 891.116 256.507 892.303 255.046 892.303 C 253.584 892.303 252.398 891.116 252.398 889.655 C 252.398 888.193 253.584 887.007 255.046 887.007 C 256.507 887.007 257.693 888.193 257.693 889.655 Z " fill="rgb(255,255,255)"/><path d=" M 243.283 888.898 C 243.283 890.359 242.096 891.546 240.635 891.546 C 239.174 891.546 237.987 890.359 237.987 888.898 C 237.987 887.437 239.174 886.25 240.635 886.25 C 242.096 886.25 243.283 887.437 243.283 888.898 Z " fill="rgb(255,255,255)"/><path d=" M 228.872 887.044 C 228.872 888.506 227.686 889.692 226.225 889.692 C 224.763 889.692 223.577 888.506 223.577 887.044 C 223.577 885.583 224.763 884.397 226.225 884.397 C 227.686 884.397 228.872 885.583 228.872 887.044 Z " fill="rgb(255,255,255)"/><path d=" M 214.462 883.602 C 214.462 885.064 213.276 886.25 211.814 886.25 C 210.353 886.25 209.166 885.064 209.166 883.602 C 209.166 882.141 210.353 880.954 211.814 880.954 C 213.276 880.954 214.462 882.141 214.462 883.602 Z " fill="rgb(255,255,255)"/><path d=" M 200.052 878.836 C 200.052 880.298 198.865 881.484 197.404 881.484 C 195.942 881.484 194.756 880.298 194.756 878.836 C 194.756 877.375 195.942 876.188 197.404 876.188 C 198.865 876.188 200.052 877.375 200.052 878.836 Z " fill="rgb(255,255,255)"/><path d=" M 266.808 888.898 C 266.808 890.359 267.995 891.546 269.456 891.546 C 270.917 891.546 272.104 890.359 272.104 888.898 C 272.104 887.437 270.917 886.25 269.456 886.25 C 267.995 886.25 266.808 887.437 266.808 888.898 Z " fill="rgb(255,255,255)"/><path d=" M 281.219 887.044 C 281.219 888.506 282.405 889.692 283.866 889.692 C 285.328 889.692 286.514 888.506 286.514 887.044 C 286.514 885.583 285.328 884.397 283.866 884.397 C 282.405 884.397 281.219 885.583 281.219 887.044 Z " fill="rgb(255,255,255)"/><path d=" M 295.629 883.602 C 295.629 885.064 296.816 886.25 298.277 886.25 C 299.738 886.25 300.925 885.064 300.925 883.602 C 300.925 882.141 299.738 880.954 298.277 880.954 C 296.816 880.954 295.629 882.141 295.629 883.602 Z " fill="rgb(255,255,255)"/><path d=" M 310.04 878.836 C 310.04 880.298 311.226 881.484 312.687 881.484 C 314.149 881.484 315.335 880.298 315.335 878.836 C 315.335 877.375 314.149 876.188 312.687 876.188 C 311.226 876.188 310.04 877.375 310.04 878.836 Z " fill="rgb(255,255,255)"/><path d=" M 1122.321 889.655 C 1122.321 891.116 1121.135 892.303 1119.673 892.303 C 1118.212 892.303 1117.025 891.116 1117.025 889.655 C 1117.025 888.193 1118.212 887.007 1119.673 887.007 C 1121.135 887.007 1122.321 888.193 1122.321 889.655 Z " fill="rgb(255,255,255)"/><path d=" M 1107.911 888.898 C 1107.911 890.359 1106.724 891.546 1105.263 891.546 C 1103.801 891.546 1102.615 890.359 1102.615 888.898 C 1102.615 887.437 1103.801 886.25 1105.263 886.25 C 1106.724 886.25 1107.911 887.437 1107.911 888.898 Z " fill="rgb(255,255,255)"/><path d=" M 1093.5 887.044 C 1093.5 888.506 1092.314 889.692 1090.852 889.692 C 1089.391 889.692 1088.205 888.506 1088.205 887.044 C 1088.205 885.583 1089.391 884.397 1090.852 884.397 C 1092.314 884.397 1093.5 885.583 1093.5 887.044 Z " fill="rgb(255,255,255)"/><path d=" M 1079.09 883.602 C 1079.09 885.064 1077.903 886.25 1076.442 886.25 C 1074.981 886.25 1073.794 885.064 1073.794 883.602 C 1073.794 882.141 1074.981 880.954 1076.442 880.954 C 1077.903 880.954 1079.09 882.141 1079.09 883.602 Z " fill="rgb(255,255,255)"/><path d=" M 1064.679 878.836 C 1064.679 880.298 1063.493 881.484 1062.031 881.484 C 1060.57 881.484 1059.384 880.298 1059.384 878.836 C 1059.384 877.375 1060.57 876.188 1062.031 876.188 C 1063.493 876.188 1064.679 877.375 1064.679 878.836 Z " fill="rgb(255,255,255)"/><path d=" M 1131.436 888.898 C 1131.436 890.359 1132.622 891.546 1134.084 891.546 C 1135.545 891.546 1136.732 890.359 1136.732 888.898 C 1136.732 887.437 1135.545 886.25 1134.084 886.25 C 1132.622 886.25 1131.436 887.437 1131.436 888.898 Z " fill="rgb(255,255,255)"/><path d=" M 1145.846 887.044 C 1145.846 888.506 1147.033 889.692 1148.494 889.692 C 1149.956 889.692 1151.142 888.506 1151.142 887.044 C 1151.142 885.583 1149.956 884.397 1148.494 884.397 C 1147.033 884.397 1145.846 885.583 1145.846 887.044 Z " fill="rgb(255,255,255)"/><path d=" M 1160.257 883.602 C 1160.257 885.064 1161.443 886.25 1162.905 886.25 C 1164.366 886.25 1165.553 885.064 1165.553 883.602 C 1165.553 882.141 1164.366 880.954 1162.905 880.954 C 1161.443 880.954 1160.257 882.141 1160.257 883.602 Z " fill="rgb(255,255,255)"/><path d=" M 1174.667 878.836 C 1174.667 880.298 1175.854 881.484 1177.315 881.484 C 1178.777 881.484 1179.963 880.298 1179.963 878.836 C 1179.963 877.375 1178.777 876.188 1177.315 876.188 C 1175.854 876.188 1174.667 877.375 1174.667 878.836 Z " fill="rgb(255,255,255)"/></g></g></svg>