<svg version="1" xmlns="http://www.w3.org/2000/svg" width="556" height="556" viewBox="0 0 417.000000 417.000000"><path d="M193 .6C142.6 5.2 97.9 25.5 62.7 59.9c-32.5 31.6-52.3 70-60.3 116.6-2.5 14-2.5 45.8 0 61.5 7 46.2 27.1 85.9 59.6 118 29.9 29.5 65.9 48.5 107.7 56.7 12.7 2.5 15.7 2.7 38.3 2.7 22.6 0 25.6-.2 38.3-2.7 59.8-11.8 110.9-47.6 141.2-99.2 48.3-82 34.3-186.3-33.9-253.7C316.4 23.1 266 1.8 213.5.6c-8.8-.2-18-.2-20.5 0zm41.2 103c24.5 5.9 48.7 22.7 62.9 43.5 6.1 9 12.6 23.5 15.6 34.6 2.3 8.7 2.7 11.7 2.7 26.8.1 15.6-.1 17.8-2.7 26.9-10.6 38.3-39.8 67.4-77.5 77.3-14.2 3.7-33.9 4.3-48.1 1.3-20.8-4.2-37.4-12.8-52.6-27.2-44.6-42.1-45.9-111-3-154.3 26.9-27.2 65.1-38 102.7-28.9z"/></svg>