<?xml version="1.0" standalone="no"?><!-- Generator: Gravit.io --><svg xmlns="http://www.w3.org/2000/svg" xmlns:xlink="http://www.w3.org/1999/xlink" style="isolation:isolate" viewBox="0 0 225 72" width="225" height="72"><defs><clipPath id="_clipPath_FSSd1xVAwPXcAl6GJ3ANJZSOo8MYkCcf"><rect width="225" height="72"/></clipPath></defs><g clip-path="url(#_clipPath_FSSd1xVAwPXcAl6GJ3ANJZSOo8MYkCcf)"><rect x="0.5" y="0.5" width="224" height="71" transform="matrix(1,0,0,1,0,0)" fill="rgb(171,220,168)"/><rect x="33.444" y="28.11" width="158.113" height="15.78" transform="matrix(1,0,0,1,0,0)" fill="rgb(255,255,255)"/><path d=" M 190.406 28.86 L 184.496 36 L 184.496 36 L 190.406 43.14 L 34.594 43.14 L 40.504 36 L 40.504 36 L 34.594 28.86 L 190.406 28.86 Z  M 32.887 27.36 L 192.113 27.36 L 192.113 44.64 L 32.887 44.64 L 32.887 27.36 L 32.887 27.36 Z " fill-rule="evenodd" fill="rgb(211,68,74)"/><mask id="_mask_ddvHB8YpnsivPZz7H4lNLLsn5pp6BUBr"><rect x="0" y="0" width="225" height="72" fill="white" stroke="none"/></mask><rect x="0" y="0" width="225" height="72" transform="matrix(1,0,0,1,0,0)" fill="none" mask="url(#_mask_ddvHB8YpnsivPZz7H4lNLLsn5pp6BUBr)" vector-effect="non-scaling-stroke" stroke-width="2" stroke="rgb(211,68,74)" stroke-linejoin="miter" stroke-linecap="square" stroke-miterlimit="2"/><g><g><path d=" M 5.944 40.492 C 5.944 38.423 7.624 36.743 9.693 36.743 C 11.762 36.743 13.442 38.423 13.442 40.492 C 13.442 42.561 11.762 44.241 9.693 44.241 C 7.624 44.241 5.944 42.561 5.944 40.492 Z  M 8.779 40.358 C 7.087 39.564 7.199 38.668 8.376 37.738 C 8.255 38.6 8.277 39.452 8.779 40.358 L 8.779 40.358 L 8.779 40.358 L 8.779 40.358 L 8.779 40.358 Z  M 9.783 39.8 C 9.625 37.937 10.456 37.587 11.851 38.141 C 11.043 38.468 10.317 38.913 9.783 39.8 L 9.783 39.8 L 9.783 39.8 L 9.783 39.8 L 9.783 39.8 Z  M 10.508 40.247 C 12.266 39.611 12.82 40.324 12.645 41.814 C 12.121 41.118 11.503 40.532 10.508 40.247 L 10.508 40.247 L 10.508 40.247 L 10.508 40.247 Z  M 10.264 41.344 C 11.333 42.878 10.788 43.597 9.303 43.815 C 9.84 43.128 10.246 42.38 10.264 41.344 L 10.264 41.344 L 10.264 41.344 Z  M 9.141 41.393 C 7.936 42.822 7.1 42.482 6.506 41.104 C 7.308 41.445 8.136 41.643 9.141 41.393 L 9.141 41.393 Z " fill-rule="evenodd" fill="rgb(211,68,74)"/><path d=" M 15.681 51.933 L 17.026 52.942 L 17.699 52.521 L 18.035 53.53 L 18.652 53.558 L 17.867 54.623 L 18.288 54.904 L 18.372 55.632 L 19.913 56.081 L 18.876 57.174 L 19.381 57.734 L 18.035 58.099 L 17.951 57.65 L 15.933 57.65 L 16.942 58.912 L 15.709 60.453 L 15.849 61.939 L 16.802 62.359 L 14.336 63.368 L 14.168 64.573 L 12.066 62.976 L 12.99 61.518 L 12.094 59.584 L 11.001 60.425 L 11.057 61.042 L 9.711 61.77 L 9.459 61.35 L 6.937 62.976 L 7.469 60.958 L 6.88 59.584 L 9.207 57.594 L 6.6 57.23 L 7.273 55.801 L 6.544 54.035 L 7.805 53.446 L 8.31 52.465 L 7.889 51.344 L 9.207 51.68 L 9.795 51.204 L 9.879 51.877 L 11.169 51.008 L 15.681 51.933 Z " fill="rgb(90,177,98)"/><path d=" M 18.066 9.54 L 17.661 9.135 L 17.625 7.552 L 16.962 8.215 L 16.078 7.331 L 15.526 8.105 L 14.421 7.331 L 14.311 9.467 L 13.022 8.473 L 12.765 9.872 L 11.218 8.583 L 11.218 7.552 L 9.782 8.105 L 9.451 7 L 8.604 7.884 L 7.61 7.258 L 7.573 8.767 L 6.837 9.135 L 8.347 10.424 L 7.5 10.976 L 9.23 12.964 L 9.378 12.633 L 9.782 13.995 L 11.218 14.179 L 10.556 15.063 L 12.36 15.173 L 18.066 9.54 Z " fill="rgb(90,177,98)"/><path d=" M 19.613 51.67 C 19.728 52.709 20.397 53.472 21.605 53.947 C 21.49 52.728 20.831 51.974 19.613 51.67 Z " fill="rgb(211,68,74)"/><path d=" M 17.527 46.491 C 18.749 46.92 19.673 47.598 20.271 48.497 C 19.171 48.428 18.239 48.144 17.463 47.631 C 17.194 48.354 16.657 48.96 15.837 49.436 C 15.977 47.965 16.544 46.988 17.527 46.491 Z " fill="rgb(211,68,74)"/><path d=" M 17.801 44.664 C 16.14 44.678 15.131 45.168 14.761 46.121 C 15.717 46.527 16.719 46.184 17.738 45.066 L 17.801 44.664 Z " fill="rgb(211,68,74)"/><path d=" M 17.991 49.32 C 19.132 49.098 20.245 49.321 21.317 49.975 C 20.127 50.425 19.126 50.402 18.287 49.88 C 18.478 50.932 18.342 51.939 17.864 52.889 C 17.307 51.424 17.354 50.239 17.991 49.32 Z " fill="rgb(211,68,74)"/><circle vector-effect="non-scaling-stroke" cx="17.48834309678027" cy="61.07416847227529" r="1.1546563316837428" fill="rgb(211,68,74)"/><circle vector-effect="non-scaling-stroke" cx="13.08507937707148" cy="49.73796029434933" r="1.5525014357532108" fill="rgb(211,68,74)"/><circle vector-effect="non-scaling-stroke" cx="14.912367063733356" cy="50.920322915130576" r="1.5525014357532108" fill="rgb(211,68,74)"/><circle vector-effect="non-scaling-stroke" cx="12.547641822170881" cy="52.371404313362056" r="1.5525014357532108" fill="rgb(211,68,74)"/><circle vector-effect="non-scaling-stroke" cx="9.86761130766751" cy="63.383481135642796" r="1.1546563316837428" fill="rgb(211,68,74)"/><circle vector-effect="non-scaling-stroke" cx="8.020044354709533" cy="29.205653717803997" r="1.1546563316837424" fill="rgb(211,68,74)"/><circle vector-effect="non-scaling-stroke" cx="7.789171499504782" cy="32.20781859131379" r="0.9237834764790276" fill="rgb(211,68,74)"/><circle vector-effect="non-scaling-stroke" cx="17.719215951984893" cy="64.07621652352098" r="0.9237834764790271" fill="rgb(211,68,74)"/><path d=" M 23.493 39.598 L 24.878 36.826 L 27.187 37.288 C 27.183 35.349 25.648 32.274 22.569 28.051 L 17.488 26.204 C 20.608 30.929 22.623 35.408 23.493 39.598 Z " fill="rgb(90,177,98)"/><path d=" M 22.569 42.831 L 16.565 20.661 C 14.748 13.779 21.842 12.982 22.569 19.276 C 23.516 22.547 28.179 19.997 27.187 16.504 C 23.715 5.171 9.129 8.28 12.408 21.123 L 18.412 44.678 C 19.471 48.362 23.894 46.808 22.569 42.831 Z " fill="rgb(211,68,74)"/><path d=" M 9.175 46.064 C 18.088 44.304 16.815 39.048 11.022 36.365 C 8.263 35.086 9.211 30.897 11.484 27.589 L 15.179 25.28 C 12.658 29.148 11.906 32.228 12.92 34.517 C 13.412 35.627 14.933 35.648 15.641 36.826 C 19.024 42.454 16.483 47.671 8.713 50.682 L 10.099 47.449 L 9.175 46.064 Z " fill="rgb(90,177,98)"/><path d=" M 15.339 17.624 L 15.551 17.218 C 14.396 16.027 13.764 14.892 13.599 13.758 L 13.048 14.522 C 13.56 15.965 14.328 17.004 15.339 17.624 L 15.339 17.624 L 15.339 17.624 L 15.339 17.624 L 15.339 17.624 L 15.339 17.624 L 15.339 17.624 L 15.339 17.624 L 15.339 17.624 L 15.339 17.624 L 15.339 17.624 L 15.339 17.624 L 15.339 17.624 L 15.339 17.624 L 15.339 17.624 L 15.339 17.624 L 15.339 17.624 Z  M 15.774 16.542 L 16.044 16.088 C 14.927 14.777 15.144 12.965 14.937 11.945 L 14.199 12.655 C 14.17 13.409 14.896 16.138 15.774 16.542 L 15.774 16.542 L 15.774 16.542 L 15.774 16.542 L 15.774 16.542 L 15.774 16.542 L 15.774 16.542 L 15.774 16.542 L 15.774 16.542 L 15.774 16.542 L 15.774 16.542 L 15.774 16.542 L 15.774 16.542 L 15.774 16.542 L 15.774 16.542 L 15.774 16.542 L 15.774 16.542 Z  M 17.455 14.657 L 17.958 14.406 C 17.463 12.6 18.564 11.223 19.021 10.347 L 18.128 10.377 C 17.618 10.979 16.663 13.649 17.455 14.657 L 17.455 14.657 L 17.455 14.657 L 17.455 14.657 L 17.455 14.657 L 17.455 14.657 L 17.455 14.657 L 17.455 14.657 L 17.455 14.657 L 17.455 14.657 L 17.455 14.657 L 17.455 14.657 L 17.455 14.657 L 17.455 14.657 L 17.455 14.657 L 17.455 14.657 Z  M 18.673 14.348 L 19.224 14.367 C 19.135 12.497 20.451 11.397 21.088 10.642 L 20.233 10.426 C 19.604 10.901 18.248 13.179 18.673 14.348 L 18.673 14.348 L 18.673 14.348 L 18.673 14.348 L 18.673 14.348 L 18.673 14.348 L 18.673 14.348 L 18.673 14.348 L 18.673 14.348 L 18.673 14.348 L 18.673 14.348 L 18.673 14.348 L 18.673 14.348 L 18.673 14.348 L 18.673 14.348 Z  M 20.529 14.454 L 20.848 14.58 C 21.732 12.888 23.527 12.974 24.452 12.686 L 24.163 12.367 C 23.438 12.251 20.853 12.731 20.529 14.454 L 20.529 14.454 L 20.529 14.454 L 20.529 14.454 L 20.529 14.454 L 20.529 14.454 L 20.529 14.454 L 20.529 14.454 L 20.529 14.454 L 20.529 14.454 L 20.529 14.454 L 20.529 14.454 L 20.529 14.454 L 20.529 14.454 Z  M 21.311 15.005 L 21.611 15.334 C 22.496 13.641 24.291 13.728 25.216 13.439 L 25.081 13.304 C 24.356 13.188 21.785 13.333 21.311 15.005 L 21.311 15.005 L 21.311 15.005 L 21.311 15.005 L 21.311 15.005 L 21.311 15.005 L 21.311 15.005 L 21.311 15.005 L 21.311 15.005 L 21.311 15.005 L 21.311 15.005 L 21.311 15.005 L 21.311 15.005 Z  M 22.616 17.044 L 22.786 17.455 C 24.194 16.164 25.852 16.856 26.821 16.899 L 26.739 16.726 C 26.097 16.37 23.63 15.633 22.616 17.044 L 22.616 17.044 L 22.616 17.044 L 22.616 17.044 L 22.616 17.044 L 22.616 17.044 L 22.616 17.044 L 22.616 17.044 L 22.616 17.044 L 22.616 17.044 L 22.616 17.044 L 22.616 17.044 Z  M 23.073 18.057 L 23.132 18.371 C 24.897 17.922 25.479 18.318 26.243 18.472 L 26.562 18.202 C 26.172 18.036 24.609 17.47 23.073 18.057 L 23.073 18.057 L 23.073 18.057 L 23.073 18.057 L 23.073 18.057 L 23.073 18.057 L 23.073 18.057 L 23.073 18.057 L 23.073 18.057 L 23.073 18.057 L 23.073 18.057 Z  M 12.634 18.488 L 15.861 20.021 L 15.93 20.605 L 12.691 19.163 L 12.634 18.488 L 12.634 18.488 L 12.634 18.488 L 12.634 18.488 L 12.634 18.488 L 12.634 18.488 L 12.634 18.488 L 12.634 18.488 L 12.634 18.488 L 12.634 18.488 Z  M 12.84 20.422 L 16.067 21.955 L 16.136 22.539 L 12.897 21.097 L 12.84 20.422 L 12.84 20.422 L 12.84 20.422 L 12.84 20.422 L 12.84 20.422 L 12.84 20.422 L 12.84 20.422 L 12.84 20.422 L 12.84 20.422 Z  M 14.076 24.084 L 17.303 25.617 L 17.372 26.201 L 14.133 24.759 L 14.076 24.084 L 14.076 24.084 L 14.076 24.084 L 14.076 24.084 L 14.076 24.084 L 14.076 24.084 L 14.076 24.084 L 14.076 24.084 Z  M 14.591 26.201 L 17.818 27.734 L 17.887 28.318 L 14.648 26.876 L 14.591 26.201 L 14.591 26.201 L 14.591 26.201 L 14.591 26.201 L 14.591 26.201 L 14.591 26.201 L 14.591 26.201 Z  M 15.535 30.205 C 16.055 30.051 17.274 30.541 18.9 31.713 L 19.018 32.242 C 17.712 31.422 16.534 30.996 15.671 30.846 L 15.535 30.205 L 15.535 30.205 L 15.535 30.205 L 15.535 30.205 L 15.535 30.205 L 15.535 30.205 Z  M 16.053 32.19 C 16.684 32.085 17.908 32.58 19.418 33.698 L 19.535 34.19 C 18.503 33.321 17.333 32.942 16.188 32.831 L 16.053 32.19 L 16.053 32.19 L 16.053 32.19 L 16.053 32.19 L 16.053 32.19 Z  M 17.199 36.492 C 17.831 36.388 19.054 36.883 20.565 38 L 20.682 38.53 C 19.649 37.66 18.461 37.334 17.316 37.223 L 17.199 36.492 L 17.199 36.492 L 17.199 36.492 L 17.199 36.492 Z  M 17.686 38.258 C 18.318 38.154 19.615 38.694 21.126 39.812 L 21.2 40.206 C 20.167 39.337 18.954 39.072 17.809 38.961 L 17.686 38.258 L 17.686 38.258 L 17.686 38.258 Z  M 18.451 41.747 C 19.082 41.643 20.379 42.183 21.89 43.3 L 21.964 43.695 C 20.931 42.826 19.74 42.465 18.595 42.354 L 18.451 41.747 L 18.451 41.747 Z  M 18.734 43.362 C 19.988 43.442 21.185 43.999 22.059 44.918 L 21.875 45.251 C 20.76 44.418 19.946 44.12 18.879 43.969 L 18.734 43.362 Z " fill-rule="evenodd" fill="rgb(255,255,255)"/><path d=" M 7.766 22.632 C 7.045 20.627 6.435 20.074 7.766 19.932 C 10.834 19.602 12.6 22.124 15.418 22.632 C 18.547 23.197 25.618 20.074 24.42 22.632 C 24.177 23.151 23.759 23.462 23.52 23.982 C 23.113 24.867 23.626 25.875 23.069 26.683 C 21.304 29.247 18.129 23.664 15.418 24.433 C 13.683 24.924 6.929 29.823 6.866 25.333 C 6.851 24.314 8.226 23.911 7.766 22.632 Z " fill="rgb(90,177,98)"/><path d=" M 8.481 15.674 C 8.283 14.871 8.274 14.078 8.474 13.289 C 9.261 14.394 10.038 15.735 10.173 17.233 C 10.09 15.9 10.173 15.016 10.338 14.76 C 11.37 16.201 11.701 17.099 11.513 18.075 L 12.079 19.18 L 11.582 19.263 C 10.85 19.745 9.93 19.915 8.847 19.802 C 8.965 19.11 9.527 18.567 10.546 18.186 C 9.109 18.836 7.787 18.909 6.609 18.435 C 7.045 17.698 7.873 17.311 9.109 17.288 C 8.979 17.043 8.864 16.798 8.77 16.555 C 7.428 16.777 6.15 16.54 4.924 15.831 C 6.101 15.204 7.291 15.156 8.481 15.674 Z " fill="rgb(211,68,74)"/><path d=" M 19.885 51.703 L 19.992 51.823 L 19.751 52.04 L 19.645 51.92 C 19.364 51.606 19.091 51.283 18.832 50.95 C 18.629 50.691 18.44 50.428 18.26 50.151 C 18.029 49.8 17.821 49.431 17.645 49.052 C 17.521 48.784 17.424 48.502 17.359 48.216 C 17.327 48.073 17.304 47.925 17.285 47.777 C 17.267 47.606 17.257 47.435 17.257 47.264 C 17.257 47.135 17.262 47.006 17.267 46.877 C 17.276 46.733 17.29 46.59 17.304 46.442 C 17.354 46.022 17.428 45.606 17.53 45.195 C 17.673 44.618 17.844 44.05 18.038 43.491 L 18.093 43.339 L 18.398 43.445 L 18.343 43.597 C 18.153 44.147 17.987 44.706 17.844 45.269 C 17.747 45.671 17.673 46.073 17.627 46.479 C 17.608 46.618 17.599 46.756 17.59 46.895 C 17.585 47.02 17.581 47.14 17.581 47.26 C 17.581 47.422 17.59 47.583 17.608 47.745 C 17.622 47.879 17.645 48.013 17.673 48.147 C 17.733 48.41 17.821 48.669 17.936 48.913 C 18.107 49.283 18.306 49.634 18.528 49.976 C 18.703 50.239 18.888 50.502 19.086 50.752 C 19.345 51.079 19.608 51.394 19.885 51.703 Z " fill="rgb(211,68,74)"/></g><g><path d=" M 198.696 40.492 C 198.696 38.423 200.375 36.743 202.444 36.743 C 204.513 36.743 206.193 38.423 206.193 40.492 C 206.193 42.561 204.513 44.241 202.444 44.241 C 200.375 44.241 198.696 42.561 198.696 40.492 Z  M 201.531 40.358 C 199.838 39.564 199.95 38.668 201.128 37.738 C 201.006 38.6 201.029 39.452 201.531 40.358 L 201.531 40.358 L 201.531 40.358 L 201.531 40.358 L 201.531 40.358 Z  M 202.535 39.8 C 202.376 37.937 203.208 37.587 204.602 38.141 C 203.794 38.468 203.069 38.913 202.535 39.8 L 202.535 39.8 L 202.535 39.8 L 202.535 39.8 L 202.535 39.8 Z  M 203.259 40.247 C 205.018 39.611 205.572 40.324 205.397 41.814 C 204.873 41.118 204.255 40.532 203.259 40.247 L 203.259 40.247 L 203.259 40.247 L 203.259 40.247 Z  M 203.016 41.344 C 204.085 42.878 203.54 43.597 202.055 43.815 C 202.591 43.128 202.997 42.38 203.016 41.344 L 203.016 41.344 L 203.016 41.344 Z  M 201.893 41.393 C 200.688 42.822 199.852 42.482 199.257 41.104 C 200.06 41.445 200.888 41.643 201.893 41.393 L 201.893 41.393 Z " fill-rule="evenodd" fill="rgb(211,68,74)"/><path d=" M 208.433 51.933 L 209.778 52.942 L 210.451 52.521 L 210.787 53.53 L 211.403 53.558 L 210.619 54.623 L 211.039 54.904 L 211.123 55.632 L 212.665 56.081 L 211.628 57.174 L 212.132 57.734 L 210.787 58.099 L 210.703 57.65 L 208.685 57.65 L 209.694 58.912 L 208.461 60.453 L 208.601 61.939 L 209.554 62.359 L 207.087 63.368 L 206.919 64.573 L 204.817 62.976 L 205.742 61.518 L 204.845 59.584 L 203.752 60.425 L 203.808 61.042 L 202.463 61.77 L 202.21 61.35 L 199.688 62.976 L 200.221 60.958 L 199.632 59.584 L 201.958 57.594 L 199.352 57.23 L 200.024 55.801 L 199.296 54.035 L 200.557 53.446 L 201.061 52.465 L 200.641 51.344 L 201.958 51.68 L 202.547 51.204 L 202.631 51.877 L 203.92 51.008 L 208.433 51.933 Z " fill="rgb(90,177,98)"/><path d=" M 210.818 9.54 L 210.413 9.135 L 210.376 7.552 L 209.713 8.215 L 208.83 7.331 L 208.277 8.105 L 207.173 7.331 L 207.062 9.467 L 205.774 8.473 L 205.516 9.872 L 203.97 8.583 L 203.97 7.552 L 202.534 8.105 L 202.203 7 L 201.356 7.884 L 200.362 7.258 L 200.325 8.767 L 199.589 9.135 L 201.098 10.424 L 200.251 10.976 L 201.982 12.964 L 202.129 12.633 L 202.534 13.995 L 203.97 14.179 L 203.307 15.063 L 205.111 15.173 L 210.818 9.54 Z " fill="rgb(90,177,98)"/><path d=" M 212.365 51.67 C 212.48 52.709 213.148 53.472 214.357 53.947 C 214.242 52.728 213.582 51.974 212.365 51.67 Z " fill="rgb(211,68,74)"/><path d=" M 210.278 46.491 C 211.501 46.92 212.425 47.598 213.023 48.497 C 211.922 48.428 210.991 48.144 210.215 47.631 C 209.946 48.354 209.408 48.96 208.589 49.436 C 208.728 47.965 209.296 46.988 210.278 46.491 Z " fill="rgb(211,68,74)"/><path d=" M 210.553 44.664 C 208.892 44.678 207.883 45.168 207.512 46.121 C 208.469 46.527 209.47 46.184 210.489 45.066 L 210.553 44.664 Z " fill="rgb(211,68,74)"/><path d=" M 210.743 49.32 C 211.883 49.098 212.997 49.321 214.068 49.975 C 212.878 50.425 211.877 50.402 211.038 49.88 C 211.23 50.932 211.093 51.939 210.616 52.889 C 210.058 51.424 210.105 50.239 210.743 49.32 Z " fill="rgb(211,68,74)"/><circle vector-effect="non-scaling-stroke" cx="210.2398224098992" cy="61.07416847227529" r="1.1546563316837535" fill="rgb(211,68,74)"/><circle vector-effect="non-scaling-stroke" cx="205.83655869019043" cy="49.73796029434932" r="1.5525014357532143" fill="rgb(211,68,74)"/><circle vector-effect="non-scaling-stroke" cx="207.66384637685235" cy="50.920322915130576" r="1.5525014357532143" fill="rgb(211,68,74)"/><circle vector-effect="non-scaling-stroke" cx="205.29912113528985" cy="52.371404313362056" r="1.5525014357532143" fill="rgb(211,68,74)"/><circle vector-effect="non-scaling-stroke" cx="202.6190906207865" cy="63.383481135642796" r="1.1546563316837535" fill="rgb(211,68,74)"/><circle vector-effect="non-scaling-stroke" cx="200.7715236678285" cy="29.205653717803997" r="1.1546563316837535" fill="rgb(211,68,74)"/><circle vector-effect="non-scaling-stroke" cx="200.54065081262377" cy="32.20781859131379" r="0.9237834764790307" fill="rgb(211,68,74)"/><circle vector-effect="non-scaling-stroke" cx="210.47069526510387" cy="64.07621652352098" r="0.9237834764790307" fill="rgb(211,68,74)"/><path d=" M 216.244 39.598 L 217.63 36.826 L 219.939 37.288 C 219.934 35.349 218.399 32.274 215.32 28.051 L 210.24 26.204 C 213.359 30.929 215.375 35.408 216.244 39.598 Z " fill="rgb(90,177,98)"/><path d=" M 215.32 42.831 L 209.316 20.661 C 207.5 13.779 214.593 12.982 215.32 19.276 C 216.267 22.547 220.93 19.997 219.939 16.504 C 216.467 5.171 201.88 8.28 205.159 21.123 L 211.164 44.678 C 212.222 48.362 216.646 46.808 215.32 42.831 Z " fill="rgb(211,68,74)"/><path d=" M 201.926 46.064 C 210.839 44.304 209.567 39.048 203.774 36.365 C 201.014 35.086 201.962 30.897 204.236 27.589 L 207.931 25.28 C 205.409 29.148 204.658 32.228 205.672 34.517 C 206.164 35.627 207.684 35.648 208.392 36.826 C 211.775 42.454 209.234 47.671 201.464 50.682 L 202.85 47.449 L 201.926 46.064 Z " fill="rgb(90,177,98)"/><path d=" M 208.09 17.624 L 208.303 17.218 C 207.148 16.027 206.516 14.892 206.351 13.758 L 205.8 14.522 C 206.311 15.965 207.079 17.004 208.09 17.624 L 208.09 17.624 L 208.09 17.624 L 208.09 17.624 L 208.09 17.624 L 208.09 17.624 L 208.09 17.624 L 208.09 17.624 L 208.09 17.624 L 208.09 17.624 L 208.09 17.624 L 208.09 17.624 L 208.09 17.624 L 208.09 17.624 L 208.09 17.624 L 208.09 17.624 L 208.09 17.624 Z  M 208.525 16.542 L 208.796 16.088 C 207.679 14.777 207.896 12.965 207.688 11.945 L 206.95 12.655 C 206.921 13.409 207.647 16.138 208.525 16.542 L 208.525 16.542 L 208.525 16.542 L 208.525 16.542 L 208.525 16.542 L 208.525 16.542 L 208.525 16.542 L 208.525 16.542 L 208.525 16.542 L 208.525 16.542 L 208.525 16.542 L 208.525 16.542 L 208.525 16.542 L 208.525 16.542 L 208.525 16.542 L 208.525 16.542 L 208.525 16.542 Z  M 210.207 14.657 L 210.709 14.406 C 210.215 12.6 211.315 11.223 211.772 10.347 L 210.88 10.377 C 210.37 10.979 209.414 13.649 210.207 14.657 L 210.207 14.657 L 210.207 14.657 L 210.207 14.657 L 210.207 14.657 L 210.207 14.657 L 210.207 14.657 L 210.207 14.657 L 210.207 14.657 L 210.207 14.657 L 210.207 14.657 L 210.207 14.657 L 210.207 14.657 L 210.207 14.657 L 210.207 14.657 L 210.207 14.657 Z  M 211.424 14.348 L 211.975 14.367 C 211.887 12.497 213.202 11.397 213.84 10.642 L 212.985 10.426 C 212.356 10.901 210.999 13.179 211.424 14.348 L 211.424 14.348 L 211.424 14.348 L 211.424 14.348 L 211.424 14.348 L 211.424 14.348 L 211.424 14.348 L 211.424 14.348 L 211.424 14.348 L 211.424 14.348 L 211.424 14.348 L 211.424 14.348 L 211.424 14.348 L 211.424 14.348 L 211.424 14.348 Z  M 213.28 14.454 L 213.599 14.58 C 214.484 12.888 216.279 12.974 217.204 12.686 L 216.914 12.367 C 216.189 12.251 213.604 12.731 213.28 14.454 L 213.28 14.454 L 213.28 14.454 L 213.28 14.454 L 213.28 14.454 L 213.28 14.454 L 213.28 14.454 L 213.28 14.454 L 213.28 14.454 L 213.28 14.454 L 213.28 14.454 L 213.28 14.454 L 213.28 14.454 L 213.28 14.454 Z  M 214.063 15.005 L 214.363 15.334 C 215.247 13.641 217.042 13.728 217.967 13.439 L 217.832 13.304 C 217.107 13.188 214.536 13.333 214.063 15.005 L 214.063 15.005 L 214.063 15.005 L 214.063 15.005 L 214.063 15.005 L 214.063 15.005 L 214.063 15.005 L 214.063 15.005 L 214.063 15.005 L 214.063 15.005 L 214.063 15.005 L 214.063 15.005 L 214.063 15.005 Z  M 215.368 17.044 L 215.538 17.455 C 216.945 16.164 218.604 16.856 219.572 16.899 L 219.491 16.726 C 218.849 16.37 216.382 15.633 215.368 17.044 L 215.368 17.044 L 215.368 17.044 L 215.368 17.044 L 215.368 17.044 L 215.368 17.044 L 215.368 17.044 L 215.368 17.044 L 215.368 17.044 L 215.368 17.044 L 215.368 17.044 L 215.368 17.044 Z  M 215.824 18.057 L 215.883 18.371 C 217.648 17.922 218.231 18.318 218.994 18.472 L 219.313 18.202 C 218.924 18.036 217.36 17.47 215.824 18.057 L 215.824 18.057 L 215.824 18.057 L 215.824 18.057 L 215.824 18.057 L 215.824 18.057 L 215.824 18.057 L 215.824 18.057 L 215.824 18.057 L 215.824 18.057 L 215.824 18.057 Z  M 205.386 18.488 L 208.613 20.021 L 208.682 20.605 L 205.443 19.163 L 205.386 18.488 L 205.386 18.488 L 205.386 18.488 L 205.386 18.488 L 205.386 18.488 L 205.386 18.488 L 205.386 18.488 L 205.386 18.488 L 205.386 18.488 L 205.386 18.488 Z  M 205.592 20.422 L 208.819 21.955 L 208.888 22.539 L 205.649 21.097 L 205.592 20.422 L 205.592 20.422 L 205.592 20.422 L 205.592 20.422 L 205.592 20.422 L 205.592 20.422 L 205.592 20.422 L 205.592 20.422 L 205.592 20.422 Z  M 206.828 24.084 L 210.055 25.617 L 210.123 26.201 L 206.885 24.759 L 206.828 24.084 L 206.828 24.084 L 206.828 24.084 L 206.828 24.084 L 206.828 24.084 L 206.828 24.084 L 206.828 24.084 L 206.828 24.084 Z  M 207.343 26.201 L 210.57 27.734 L 210.638 28.318 L 207.4 26.876 L 207.343 26.201 L 207.343 26.201 L 207.343 26.201 L 207.343 26.201 L 207.343 26.201 L 207.343 26.201 L 207.343 26.201 Z  M 208.286 30.205 C 208.807 30.051 210.025 30.541 211.652 31.713 L 211.769 32.242 C 210.464 31.422 209.285 30.996 208.422 30.846 L 208.286 30.205 L 208.286 30.205 L 208.286 30.205 L 208.286 30.205 L 208.286 30.205 L 208.286 30.205 Z  M 208.804 32.19 C 209.436 32.085 210.659 32.58 212.17 33.698 L 212.287 34.19 C 211.254 33.321 210.085 32.942 208.94 32.831 L 208.804 32.19 L 208.804 32.19 L 208.804 32.19 L 208.804 32.19 L 208.804 32.19 Z  M 209.951 36.492 C 210.582 36.388 211.806 36.883 213.316 38 L 213.433 38.53 C 212.401 37.66 211.213 37.334 210.068 37.223 L 209.951 36.492 L 209.951 36.492 L 209.951 36.492 L 209.951 36.492 Z  M 210.438 38.258 C 211.069 38.154 212.367 38.694 213.877 39.812 L 213.951 40.206 C 212.918 39.337 211.706 39.072 210.561 38.961 L 210.438 38.258 L 210.438 38.258 L 210.438 38.258 Z  M 211.202 41.747 C 211.834 41.643 213.131 42.183 214.641 43.3 L 214.715 43.695 C 213.683 42.826 212.492 42.465 211.347 42.354 L 211.202 41.747 L 211.202 41.747 Z  M 211.486 43.362 C 212.74 43.442 213.937 43.999 214.811 44.918 L 214.626 45.251 C 213.511 44.418 212.698 44.12 211.63 43.969 L 211.486 43.362 Z " fill-rule="evenodd" fill="rgb(255,255,255)"/><path d=" M 200.517 22.632 C 199.796 20.627 199.187 20.074 200.517 19.932 C 203.585 19.602 205.351 22.124 208.169 22.632 C 211.298 23.197 218.369 20.074 217.171 22.632 C 216.928 23.151 216.51 23.462 216.271 23.982 C 215.864 24.867 216.377 25.875 215.821 26.683 C 214.055 29.247 210.881 23.664 208.169 24.433 C 206.435 24.924 199.681 29.823 199.617 25.333 C 199.603 24.314 200.977 23.911 200.517 22.632 Z " fill="rgb(90,177,98)"/><path d=" M 201.233 15.674 C 201.034 14.871 201.026 14.078 201.225 13.289 C 202.013 14.394 202.789 15.735 202.924 17.233 C 202.841 15.9 202.924 15.016 203.09 14.76 C 204.121 16.201 204.453 17.099 204.264 18.075 L 204.83 19.18 L 204.333 19.263 C 203.602 19.745 202.681 19.915 201.598 19.802 C 201.716 19.11 202.278 18.567 203.297 18.186 C 201.86 18.836 200.539 18.909 199.36 18.435 C 199.796 17.698 200.625 17.311 201.861 17.288 C 201.73 17.043 201.615 16.798 201.522 16.555 C 200.18 16.777 198.902 16.54 197.675 15.831 C 198.852 15.204 200.042 15.156 201.233 15.674 Z " fill="rgb(211,68,74)"/><path d=" M 212.637 51.703 L 212.743 51.823 L 212.503 52.04 L 212.397 51.92 C 212.115 51.606 211.842 51.283 211.584 50.95 C 211.381 50.691 211.191 50.428 211.011 50.151 C 210.78 49.8 210.572 49.431 210.397 49.052 C 210.272 48.784 210.175 48.502 210.11 48.216 C 210.078 48.073 210.055 47.925 210.037 47.777 C 210.018 47.606 210.009 47.435 210.009 47.264 C 210.009 47.135 210.014 47.006 210.018 46.877 C 210.027 46.733 210.041 46.59 210.055 46.442 C 210.106 46.022 210.18 45.606 210.281 45.195 C 210.425 44.618 210.595 44.05 210.789 43.491 L 210.845 43.339 L 211.15 43.445 L 211.094 43.597 C 210.905 44.147 210.739 44.706 210.595 45.269 C 210.498 45.671 210.425 46.073 210.378 46.479 C 210.36 46.618 210.351 46.756 210.341 46.895 C 210.337 47.02 210.332 47.14 210.332 47.26 C 210.332 47.422 210.341 47.583 210.36 47.745 C 210.374 47.879 210.397 48.013 210.425 48.147 C 210.485 48.41 210.572 48.669 210.688 48.913 C 210.859 49.283 211.057 49.634 211.279 49.976 C 211.455 50.239 211.639 50.502 211.838 50.752 C 212.097 51.079 212.36 51.394 212.637 51.703 Z " fill="rgb(211,68,74)"/></g></g></g></svg>