<?xml version="1.0" standalone="no"?><!-- Generator: Gravit.io --><svg xmlns="http://www.w3.org/2000/svg" xmlns:xlink="http://www.w3.org/1999/xlink" style="isolation:isolate" viewBox="0 0 225 72" width="225" height="72"><defs><clipPath id="_clipPath_cPpnFdZNwS8pWcV4up5VaUpmizUsHGU8"><rect width="225" height="72"/></clipPath></defs><g clip-path="url(#_clipPath_cPpnFdZNwS8pWcV4up5VaUpmizUsHGU8)"><mask id="_mask_zomV0SVTZmvZ26YbAEZERiVzoV8zJ0lB"><rect x="0" y="0" width="225" height="72" fill="white" stroke="none"/></mask><rect x="0" y="0" width="225" height="72" transform="matrix(1,0,0,1,0,0)" fill="none" mask="url(#_mask_zomV0SVTZmvZ26YbAEZERiVzoV8zJ0lB)" vector-effect="non-scaling-stroke" stroke-width="2" stroke="rgb(254,71,29)" stroke-linejoin="miter" stroke-linecap="square" stroke-miterlimit="2"/><g><g><path d=" M 15.236 35.097 C 15.565 32.93 14.426 31.703 11.769 31.37 C 13.256 29.773 13.087 28.066 11.215 26.201 C 13.026 25.508 14.149 23.452 14.538 19.986 C 16.079 21.244 17.387 20.829 18.415 18.693 C 19.953 19.514 22.123 19.202 24.876 17.709 C 22.406 20.04 22.688 22.045 25.676 23.678 C 22.476 26.508 22.164 28.288 24.691 28.97 C 22.408 30.483 21.686 32.407 22.476 34.692 C 20.828 33.859 19.121 34.367 17.307 36.169 C 16.612 33.138 17.571 28.847 20.138 23.247 C 17.951 24.049 16.333 28.015 15.236 35.097 Z " fill="rgb(74,149,79)"/><path d=" M 9 40.6 C 8.977 39.43 8.225 37.154 8.262 36.169 C 7.886 34.331 8.196 32.842 8.258 30.587 C 8.26 30.509 8.288 30.504 8.32 30.574 C 10.348 34.99 12.005 36.565 13.8 35.492 C 16.077 40.158 17.898 41.507 19.215 39.492 C 19.424 42.634 21.204 44.127 24.507 43.923 C 22.708 45.731 23.093 48.598 25.614 52.476 C 22.96 52.468 20.962 53.156 19.522 54.445 C 18.266 51.819 16.518 51.035 14.23 52.045 C 13.865 48.927 12.261 47.548 9.369 47.861 C 10.154 45.439 9.678 43.281 7.892 41.338 C 8.356 41.599 9.019 41.592 9 40.6 Z  M 10.477 37.892 C 13.381 44.425 17.151 48.317 21.738 49.522 C 17.533 46.596 13.811 42.751 10.477 37.892 Z " fill-rule="evenodd" fill="rgb(74,149,79)"/><path d=" M 7.921 19.962 C 7.921 18.633 8.999 17.555 10.327 17.555 C 11.656 17.555 12.734 18.633 12.734 19.962 C 12.734 21.29 11.656 22.368 10.327 22.368 C 8.999 22.368 7.921 21.29 7.921 19.962 Z  M 10.253 19.508 C 10.253 19.245 10.466 19.031 10.729 19.031 C 10.992 19.031 11.206 19.245 11.206 19.508 C 11.206 19.771 10.992 19.984 10.729 19.984 C 10.466 19.984 10.253 19.771 10.253 19.508 Z " fill-rule="evenodd" fill="rgb(254,71,29)"/><path d=" M 21.247 36.783 C 20.885 35.604 22.102 34.453 23.334 34.453 C 24.567 34.453 25.568 35.454 25.568 36.687 C 25.568 37.92 24.55 39.125 23.334 38.921 C 22.422 38.768 21.583 37.878 21.247 36.783 Z  M 23.305 36.327 C 23.305 36.092 23.496 35.901 23.731 35.901 C 23.966 35.901 24.157 36.092 24.157 36.327 C 24.157 36.562 23.966 36.753 23.731 36.753 C 23.496 36.753 23.305 36.562 23.305 36.327 Z " fill-rule="evenodd" fill="rgb(254,71,29)"/><path d=" M 7.399 52.049 C 6.919 50.922 7.444 49.618 8.57 49.139 C 9.696 48.659 11 49.184 11.48 50.31 C 11.605 50.605 11.662 50.911 11.657 51.212 C 9.44 50.72 9.451 50.937 11.566 51.807 C 11.385 52.42 10.942 52.95 10.308 53.22 C 9.182 53.7 7.878 53.175 7.399 52.049 Z " fill="rgb(254,71,29)"/></g><g><path d=" M 207.339 35.097 C 207.669 32.93 206.529 31.703 203.872 31.37 C 205.359 29.773 205.19 28.066 203.319 26.201 C 205.129 25.508 206.253 23.452 206.641 19.986 C 208.182 21.244 209.49 20.829 210.518 18.693 C 212.057 19.514 214.226 19.202 216.979 17.709 C 214.509 20.04 214.792 22.045 217.779 23.678 C 214.579 26.508 214.267 28.288 216.795 28.97 C 214.512 30.483 213.789 32.407 214.579 34.692 C 212.931 33.859 211.224 34.367 209.411 36.169 C 208.715 33.138 209.675 28.847 212.241 23.247 C 210.054 24.049 208.436 28.015 207.339 35.097 Z " fill="rgb(74,149,79)"/><path d=" M 201.103 40.6 C 201.081 39.43 200.328 37.154 200.365 36.169 C 199.989 34.331 200.299 32.842 200.361 30.587 C 200.363 30.509 200.391 30.504 200.424 30.574 C 202.451 34.99 204.108 36.565 205.903 35.492 C 208.181 40.158 210.001 41.507 211.318 39.492 C 211.528 42.634 213.307 44.127 216.61 43.923 C 214.811 45.731 215.196 48.598 217.718 52.476 C 215.064 52.468 213.065 53.156 211.626 54.445 C 210.369 51.819 208.621 51.035 206.334 52.045 C 205.969 48.927 204.364 47.548 201.473 47.861 C 202.257 45.439 201.781 43.281 199.996 41.338 C 200.459 41.599 201.123 41.592 201.103 40.6 Z  M 202.58 37.892 C 205.485 44.425 209.254 48.317 213.841 49.522 C 209.636 46.596 205.914 42.751 202.58 37.892 Z " fill-rule="evenodd" fill="rgb(74,149,79)"/><path d=" M 200.024 19.962 C 200.024 18.633 201.102 17.555 202.431 17.555 C 203.759 17.555 204.837 18.633 204.837 19.962 C 204.837 21.29 203.759 22.368 202.431 22.368 C 201.102 22.368 200.024 21.29 200.024 19.962 Z  M 202.356 19.508 C 202.356 19.245 202.569 19.031 202.832 19.031 C 203.095 19.031 203.309 19.245 203.309 19.508 C 203.309 19.771 203.095 19.984 202.832 19.984 C 202.569 19.984 202.356 19.771 202.356 19.508 Z " fill-rule="evenodd" fill="rgb(254,71,29)"/><path d=" M 213.35 36.783 C 212.988 35.604 214.205 34.453 215.438 34.453 C 216.671 34.453 217.672 35.454 217.672 36.687 C 217.672 37.92 216.654 39.125 215.438 38.921 C 214.525 38.768 213.686 37.878 213.35 36.783 Z  M 215.409 36.327 C 215.409 36.092 215.6 35.901 215.835 35.901 C 216.07 35.901 216.26 36.092 216.26 36.327 C 216.26 36.562 216.07 36.753 215.835 36.753 C 215.6 36.753 215.409 36.562 215.409 36.327 Z " fill-rule="evenodd" fill="rgb(254,71,29)"/><path d=" M 199.502 52.049 C 199.022 50.922 199.547 49.618 200.673 49.139 C 201.8 48.659 203.104 49.184 203.583 50.31 C 203.709 50.605 203.765 50.911 203.761 51.212 C 201.543 50.72 201.554 50.937 203.669 51.807 C 203.488 52.42 203.045 52.95 202.412 53.22 C 201.285 53.7 199.982 53.175 199.502 52.049 Z " fill="rgb(254,71,29)"/></g></g><g><path d=" M 194.5 26.75 L 195 26.75 L 195 27.75 L 194.5 27.75 L 30.5 27.75 L 30 27.75 L 30 26.75 L 30.5 26.75 L 194.5 26.75 Z " fill="rgb(254,71,29)"/><path d=" M 194.5 44.25 L 195 44.25 L 195 45.25 L 194.5 45.25 L 30.5 45.25 L 30 45.25 L 30 44.25 L 30.5 44.25 L 194.5 44.25 Z " fill="rgb(254,71,29)"/></g></g></svg>