<?xml version="1.0" standalone="no"?><!-- Generator: Gravit.io --><svg xmlns="http://www.w3.org/2000/svg" xmlns:xlink="http://www.w3.org/1999/xlink" style="isolation:isolate" viewBox="0 0 154.272 41.232" width="154.272" height="41.232"><defs><clipPath id="_clipPath_dCq0szFHyRtYxfjVDd5TdbcblZSHiH8v"><rect width="154.272" height="41.232"/></clipPath></defs><g clip-path="url(#_clipPath_dCq0szFHyRtYxfjVDd5TdbcblZSHiH8v)"><path d=" M 18.912 13.968 L 18.912 13.968 L 13.248 31.344 L 13.248 31.344 Q 11.952 35.328 8.184 38.232 L 8.184 38.232 L 8.184 38.232 Q 4.416 41.136 0.192 41.232 L 0.192 41.232 L 0.192 41.232 Q 0.144 41.232 0.096 41.232 L 0.096 41.232 L 0.096 41.232 Q 0.048 41.232 0 41.232 L 0 41.232 L 0 36.576 L 0 36.576 Q 0.192 36.528 0.36 36.528 L 0.36 36.528 L 0.36 36.528 Q 0.528 36.528 0.72 36.48 L 0.72 36.48 L 0.72 36.48 Q 3.312 36.192 5.616 34.224 L 5.616 34.224 L 5.616 34.224 Q 7.92 32.256 8.736 29.856 L 8.736 29.856 L 11.04 22.656 L 11.04 22.656 Q 10.464 22.896 9.864 23.112 L 9.864 23.112 L 9.864 23.112 Q 9.264 23.328 8.64 23.52 L 8.64 23.52 L 7.44 18.912 L 7.44 18.912 Q 7.68 18.864 7.944 18.792 L 7.944 18.792 L 7.944 18.792 Q 8.208 18.72 8.448 18.624 L 8.448 18.624 L 8.448 18.624 Q 10.08 18 11.568 16.8 L 11.568 16.8 L 11.568 16.8 Q 13.056 15.6 13.824 13.968 L 13.824 13.968 L 18.912 13.968 Z  M 20.64 6.72 L 20.64 6.72 L 20.64 6.72 Q 20.64 8.064 19.704 9.048 L 19.704 9.048 L 19.704 9.048 Q 18.768 10.032 17.376 10.032 L 17.376 10.032 L 17.376 10.032 Q 16.032 10.032 15.072 9.048 L 15.072 9.048 L 15.072 9.048 Q 14.112 8.064 14.112 6.72 L 14.112 6.72 L 14.112 6.72 Q 14.112 5.376 15.072 4.416 L 15.072 4.416 L 15.072 4.416 Q 16.032 3.456 17.376 3.456 L 17.376 3.456 L 17.376 3.456 Q 18.768 3.456 19.704 4.416 L 19.704 4.416 L 19.704 4.416 Q 20.64 5.376 20.64 6.72 L 20.64 6.72 Z  M 34.32 24.768 L 34.32 24.768 L 32.736 29.52 L 32.736 29.52 Q 32.4 29.52 32.04 29.52 L 32.04 29.52 L 32.04 29.52 Q 31.68 29.52 31.296 29.52 L 31.296 29.52 L 31.296 29.52 Q 30.24 29.52 29.256 29.136 L 29.256 29.136 L 29.256 29.136 Q 28.272 28.752 27.504 28.08 L 27.504 28.08 L 27.504 28.08 Q 26.544 28.752 25.416 29.136 L 25.416 29.136 L 25.416 29.136 Q 24.288 29.52 23.136 29.52 L 23.136 29.52 L 23.136 29.52 Q 22.896 29.52 22.68 29.496 L 22.68 29.496 L 22.68 29.496 Q 22.464 29.472 22.224 29.424 L 22.224 29.424 L 22.224 29.424 Q 21.984 29.424 21.768 29.352 L 21.768 29.352 L 21.768 29.352 Q 21.552 29.28 21.312 29.232 L 21.312 29.232 L 21.312 29.232 Q 19.584 28.656 18.696 27.264 L 18.696 27.264 L 18.696 27.264 Q 17.808 25.872 17.856 24.24 L 17.856 24.24 L 17.856 24.24 Q 17.856 24 17.88 23.76 L 17.88 23.76 L 17.88 23.76 Q 17.904 23.52 17.952 23.28 L 17.952 23.28 L 17.952 23.28 Q 17.952 23.04 18.024 22.8 L 18.024 22.8 L 18.024 22.8 Q 18.096 22.56 18.144 22.32 L 18.144 22.32 L 20.832 13.968 L 25.824 13.968 L 22.656 23.808 L 22.656 23.808 Q 22.608 23.952 22.584 24.096 L 22.584 24.096 L 22.584 24.096 Q 22.56 24.24 22.56 24.336 L 22.56 24.336 L 22.56 24.336 Q 22.56 24.528 22.68 24.648 L 22.68 24.648 L 22.68 24.648 Q 22.8 24.768 23.136 24.768 L 23.136 24.768 L 23.136 24.768 Q 23.28 24.768 23.424 24.744 L 23.424 24.744 L 23.424 24.744 Q 23.568 24.72 23.712 24.672 L 23.712 24.672 L 23.712 24.672 Q 24.528 24.48 25.248 23.832 L 25.248 23.832 L 25.248 23.832 Q 25.968 23.184 26.208 22.464 L 26.208 22.464 L 26.208 22.464 Q 26.208 22.416 26.232 22.392 L 26.232 22.392 L 26.232 22.392 Q 26.256 22.368 26.256 22.32 L 26.256 22.32 L 28.992 13.968 L 33.936 13.968 L 30.816 23.808 L 30.816 23.808 Q 30.768 23.952 30.744 24.096 L 30.744 24.096 L 30.744 24.096 Q 30.72 24.24 30.72 24.336 L 30.72 24.336 L 30.72 24.336 Q 30.72 24.528 30.84 24.648 L 30.84 24.648 L 30.84 24.648 Q 30.96 24.768 31.296 24.768 L 31.296 24.768 L 34.32 24.768 Z  M 51.888 16.752 L 51.888 16.752 L 44.88 21.936 L 46.08 24.672 L 46.08 24.672 Q 46.176 24.72 46.344 24.744 L 46.344 24.744 L 46.344 24.744 Q 46.512 24.768 46.704 24.768 L 46.704 24.768 L 50.256 24.768 L 48.672 29.52 L 46.704 29.52 L 46.704 29.52 Q 46.656 29.52 46.584 29.52 L 46.584 29.52 L 46.584 29.52 Q 46.512 29.52 46.464 29.52 L 46.464 29.52 L 46.464 29.52 Q 45.072 29.472 43.776 28.848 L 43.776 28.848 L 43.776 28.848 Q 42.48 28.224 41.856 26.784 L 41.856 26.784 L 40.608 23.952 L 38.784 29.52 L 33.792 29.52 L 43.344 0 L 48.336 0 L 42.624 17.712 L 49.056 12.912 L 51.888 16.752 Z  M 67.728 24.768 L 67.728 24.768 L 66.144 29.52 L 55.68 29.52 L 55.68 29.52 Q 54.384 29.52 53.256 28.968 L 53.256 28.968 L 53.256 28.968 Q 52.128 28.416 51.504 27.264 L 51.504 27.264 L 51.504 27.264 Q 51.216 26.736 51.072 26.112 L 51.072 26.112 L 51.072 26.112 Q 50.928 25.488 50.928 24.864 L 50.928 24.864 L 50.928 24.864 Q 50.928 24.72 50.952 24.552 L 50.952 24.552 L 50.952 24.552 Q 50.976 24.384 50.976 24.192 L 50.976 24.192 L 50.976 24.192 Q 51.072 23.232 51.384 22.248 L 51.384 22.248 L 51.384 22.248 Q 51.696 21.264 52.032 20.448 L 52.032 20.448 L 52.032 20.448 Q 53.04 18.144 54.504 16.632 L 54.504 16.632 L 54.504 16.632 Q 55.968 15.12 57.552 14.352 L 57.552 14.352 L 57.552 14.352 Q 58.224 13.968 58.872 13.752 L 58.872 13.752 L 58.872 13.752 Q 59.52 13.536 60.144 13.44 L 60.144 13.44 L 60.144 13.44 Q 60.432 13.392 60.72 13.368 L 60.72 13.368 L 60.72 13.368 Q 61.008 13.344 61.344 13.344 L 61.344 13.344 L 61.344 13.344 Q 63.312 13.344 64.848 14.448 L 64.848 14.448 L 64.848 14.448 Q 66.384 15.552 66.384 17.52 L 66.384 17.52 L 66.384 17.52 Q 66.384 17.904 66.312 18.312 L 66.312 18.312 L 66.312 18.312 Q 66.24 18.72 66.048 19.2 L 66.048 19.2 L 66.048 19.2 Q 65.664 20.4 64.464 21.816 L 64.464 21.816 L 64.464 21.816 Q 63.264 23.232 61.104 24.768 L 61.104 24.768 L 67.728 24.768 Z  M 61.44 18 L 61.44 18 L 61.44 18 Q 59.712 18.096 58.416 19.344 L 58.416 19.344 L 58.416 19.344 Q 57.12 20.592 56.496 22.08 L 56.496 22.08 L 56.496 22.08 Q 56.496 22.128 56.472 22.152 L 56.472 22.152 L 56.472 22.152 Q 56.448 22.176 56.448 22.224 L 56.448 22.224 L 56.448 22.224 Q 58.656 20.928 59.832 19.848 L 59.832 19.848 L 59.832 19.848 Q 61.008 18.768 61.44 18 L 61.44 18 Z  M 79.296 22.272 L 79.296 22.272 L 79.296 22.272 Q 79.296 25.488 77.328 27.504 L 77.328 27.504 L 77.328 27.504 Q 75.36 29.52 72.096 29.52 L 72.096 29.52 L 67.248 29.52 L 68.784 24.768 L 72.096 24.768 L 72.096 24.768 Q 73.344 24.768 73.944 24.168 L 73.944 24.168 L 73.944 24.168 Q 74.544 23.568 74.544 22.272 L 74.544 22.272 L 74.544 22.272 Q 74.544 21.6 74.4 21 L 74.4 21 L 74.4 21 Q 74.256 20.4 74.016 19.92 L 74.016 19.92 L 74.016 19.92 Q 73.104 21.168 72.456 22.056 L 72.456 22.056 L 72.456 22.056 Q 71.808 22.944 71.808 22.992 L 71.808 22.992 L 67.968 20.208 L 67.968 20.208 Q 67.968 20.208 69 18.768 L 69 18.768 L 69 18.768 Q 70.032 17.328 71.328 15.6 L 71.328 15.6 L 71.328 15.6 Q 72.528 13.872 73.584 12.432 L 73.584 12.432 L 73.584 12.432 Q 74.64 10.992 74.64 10.944 L 74.64 10.944 L 78.912 13.056 L 78.912 13.056 Q 78.864 13.104 78.336 13.872 L 78.336 13.872 L 78.336 13.872 Q 77.808 14.64 76.992 15.744 L 76.992 15.744 L 76.992 15.744 Q 78.096 17.088 78.696 18.792 L 78.696 18.792 L 78.696 18.792 Q 79.296 20.496 79.296 22.272 L 79.296 22.272 Z  M 91.248 14.016 L 91.248 14.016 L 89.712 18.768 L 87.168 18.768 L 85.2 24.768 L 90.912 24.768 L 89.376 29.52 L 84 29.52 L 84 29.52 Q 82.272 29.52 81.192 28.368 L 81.192 28.368 L 81.192 28.368 Q 80.112 27.216 80.112 25.68 L 80.112 25.68 L 80.112 25.68 Q 80.112 25.536 80.136 25.368 L 80.136 25.368 L 80.136 25.368 Q 80.16 25.2 80.16 25.008 L 80.16 25.008 L 80.16 25.008 Q 80.208 24.816 80.256 24.648 L 80.256 24.648 L 80.256 24.648 Q 80.304 24.48 80.352 24.336 L 80.352 24.336 L 82.176 18.768 L 79.488 18.768 L 81.072 14.016 L 83.712 14.016 L 85.536 8.4 L 90.048 9.888 L 88.704 14.016 L 91.248 14.016 Z  M 107.616 24.768 L 107.616 24.768 L 106.032 29.52 L 106.032 29.52 Q 105.696 29.52 105.336 29.52 L 105.336 29.52 L 105.336 29.52 Q 104.976 29.52 104.592 29.52 L 104.592 29.52 L 104.592 29.52 Q 103.536 29.52 102.552 29.136 L 102.552 29.136 L 102.552 29.136 Q 101.568 28.752 100.8 28.08 L 100.8 28.08 L 100.8 28.08 Q 99.84 28.752 98.712 29.136 L 98.712 29.136 L 98.712 29.136 Q 97.584 29.52 96.432 29.52 L 96.432 29.52 L 96.432 29.52 Q 96.192 29.52 95.976 29.496 L 95.976 29.496 L 95.976 29.496 Q 95.76 29.472 95.52 29.424 L 95.52 29.424 L 95.52 29.424 Q 95.28 29.424 95.064 29.352 L 95.064 29.352 L 95.064 29.352 Q 94.848 29.28 94.608 29.232 L 94.608 29.232 L 94.608 29.232 Q 92.88 28.656 91.992 27.264 L 91.992 27.264 L 91.992 27.264 Q 91.104 25.872 91.152 24.24 L 91.152 24.24 L 91.152 24.24 Q 91.152 24 91.176 23.76 L 91.176 23.76 L 91.176 23.76 Q 91.2 23.52 91.248 23.28 L 91.248 23.28 L 91.248 23.28 Q 91.248 23.04 91.32 22.8 L 91.32 22.8 L 91.32 22.8 Q 91.392 22.56 91.44 22.32 L 91.44 22.32 L 94.128 13.968 L 99.12 13.968 L 95.952 23.808 L 95.952 23.808 Q 95.904 23.952 95.88 24.096 L 95.88 24.096 L 95.88 24.096 Q 95.856 24.24 95.856 24.336 L 95.856 24.336 L 95.856 24.336 Q 95.856 24.528 95.976 24.648 L 95.976 24.648 L 95.976 24.648 Q 96.096 24.768 96.432 24.768 L 96.432 24.768 L 96.432 24.768 Q 96.576 24.768 96.72 24.744 L 96.72 24.744 L 96.72 24.744 Q 96.864 24.72 97.008 24.672 L 97.008 24.672 L 97.008 24.672 Q 97.824 24.48 98.544 23.832 L 98.544 23.832 L 98.544 23.832 Q 99.264 23.184 99.504 22.464 L 99.504 22.464 L 99.504 22.464 Q 99.504 22.416 99.528 22.392 L 99.528 22.392 L 99.528 22.392 Q 99.552 22.368 99.552 22.32 L 99.552 22.32 L 102.288 13.968 L 107.232 13.968 L 104.112 23.808 L 104.112 23.808 Q 104.064 23.952 104.04 24.096 L 104.04 24.096 L 104.04 24.096 Q 104.016 24.24 104.016 24.336 L 104.016 24.336 L 104.016 24.336 Q 104.016 24.528 104.136 24.648 L 104.136 24.648 L 104.136 24.648 Q 104.256 24.768 104.592 24.768 L 104.592 24.768 L 107.616 24.768 Z  M 129.072 0 L 129.072 0 L 121.776 22.512 L 121.776 22.512 Q 121.728 22.704 121.656 22.992 L 121.656 22.992 L 121.656 22.992 Q 121.584 23.28 121.584 23.568 L 121.584 23.568 L 121.584 23.568 Q 121.584 23.76 121.632 23.928 L 121.632 23.928 L 121.632 23.928 Q 121.68 24.096 121.776 24.288 L 121.776 24.288 L 121.776 24.288 Q 121.92 24.48 122.16 24.576 L 122.16 24.576 L 122.16 24.576 Q 122.4 24.672 122.64 24.72 L 122.64 24.72 L 122.64 24.72 Q 122.736 24.768 122.832 24.768 L 122.832 24.768 L 122.832 24.768 Q 122.928 24.768 123.024 24.768 L 123.024 24.768 L 126.144 24.768 L 124.608 29.52 L 123.024 29.52 L 123.024 29.52 Q 121.68 29.52 120.432 29.016 L 120.432 29.016 L 120.432 29.016 Q 119.184 28.512 118.272 27.456 L 118.272 27.456 L 118.272 27.456 Q 117.216 28.32 116.016 28.848 L 116.016 28.848 L 116.016 28.848 Q 114.816 29.376 113.616 29.472 L 113.616 29.472 L 113.616 29.472 Q 113.424 29.52 113.256 29.52 L 113.256 29.52 L 113.256 29.52 Q 113.088 29.52 112.896 29.52 L 112.896 29.52 L 112.896 29.52 Q 109.92 29.52 108.552 27.792 L 108.552 27.792 L 108.552 27.792 Q 107.184 26.064 107.184 23.76 L 107.184 23.76 L 107.184 23.76 Q 107.184 23.424 107.208 23.112 L 107.208 23.112 L 107.208 23.112 Q 107.232 22.8 107.28 22.512 L 107.28 22.512 L 107.28 22.512 Q 107.376 21.888 107.568 21.24 L 107.568 21.24 L 107.568 21.24 Q 107.76 20.592 108 20.016 L 108 20.016 L 108 20.016 Q 109.056 17.664 111.288 15.864 L 111.288 15.864 L 111.288 15.864 Q 113.52 14.064 116.592 14.064 L 116.592 14.064 L 119.52 14.064 L 124.08 0 L 129.072 0 Z  M 117.984 18.768 L 117.984 18.768 L 116.592 18.768 L 116.592 18.768 Q 114.912 18.768 113.592 20.112 L 113.592 20.112 L 113.592 20.112 Q 112.272 21.456 111.936 23.04 L 111.936 23.04 L 111.936 23.04 Q 111.936 23.136 111.912 23.232 L 111.912 23.232 L 111.912 23.232 Q 111.888 23.328 111.888 23.424 L 111.888 23.424 L 111.888 23.424 Q 111.84 24.048 112.008 24.408 L 112.008 24.408 L 112.008 24.408 Q 112.176 24.768 112.896 24.768 L 112.896 24.768 L 112.896 24.768 Q 112.992 24.768 113.064 24.768 L 113.064 24.768 L 113.064 24.768 Q 113.136 24.768 113.232 24.768 L 113.232 24.768 L 113.232 24.768 Q 114.432 24.624 115.488 23.688 L 115.488 23.688 L 115.488 23.688 Q 116.544 22.752 116.976 21.648 L 116.976 21.648 L 116.976 21.648 Q 117.024 21.552 117.048 21.456 L 117.048 21.456 L 117.048 21.456 Q 117.072 21.36 117.12 21.264 L 117.12 21.264 L 117.984 18.768 Z  M 135.552 24.768 L 135.552 24.768 L 134.016 29.52 L 129.696 29.52 L 129.696 29.52 Q 127.92 29.52 126.816 28.344 L 126.816 28.344 L 126.816 28.344 Q 125.712 27.168 125.712 25.584 L 125.712 25.584 L 125.712 25.584 Q 125.712 25.392 125.736 25.224 L 125.736 25.224 L 125.736 25.224 Q 125.76 25.056 125.76 24.864 L 125.76 24.864 L 125.76 24.864 Q 125.808 24.72 125.856 24.552 L 125.856 24.552 L 125.856 24.552 Q 125.904 24.384 125.952 24.192 L 125.952 24.192 L 129.216 13.968 L 134.256 13.968 L 130.8 24.768 L 135.552 24.768 Z  M 136.752 6.72 L 136.752 6.72 L 136.752 6.72 Q 136.752 8.064 135.816 9.048 L 135.816 9.048 L 135.816 9.048 Q 134.88 10.032 133.488 10.032 L 133.488 10.032 L 133.488 10.032 Q 132.144 10.032 131.184 9.048 L 131.184 9.048 L 131.184 9.048 Q 130.224 8.064 130.224 6.72 L 130.224 6.72 L 130.224 6.72 Q 130.224 5.376 131.184 4.416 L 131.184 4.416 L 131.184 4.416 Q 132.144 3.456 133.488 3.456 L 133.488 3.456 L 133.488 3.456 Q 134.88 3.456 135.816 4.416 L 135.816 4.416 L 135.816 4.416 Q 136.752 5.376 136.752 6.72 L 136.752 6.72 Z  M 154.272 17.712 L 154.272 17.712 L 152.688 22.608 L 150.384 22.608 L 150.384 22.608 Q 149.76 25.392 147.432 27.456 L 147.432 27.456 L 147.432 27.456 Q 145.104 29.52 142.128 29.52 L 142.128 29.52 L 142.128 29.52 Q 141.984 29.52 141.864 29.52 L 141.864 29.52 L 141.864 29.52 Q 141.744 29.52 141.6 29.472 L 141.6 29.472 L 141.6 29.472 Q 141.456 29.472 141.336 29.448 L 141.336 29.448 L 141.336 29.448 Q 141.216 29.424 141.072 29.424 L 141.072 29.424 L 141.072 29.424 Q 138.432 29.04 136.824 27.048 L 136.824 27.048 L 136.824 27.048 Q 135.216 25.056 135.216 22.416 L 135.216 22.416 L 135.216 22.416 Q 135.216 19.008 137.712 16.344 L 137.712 16.344 L 137.712 16.344 Q 140.208 13.68 143.712 13.68 L 143.712 13.68 L 143.712 13.68 Q 145.824 13.68 147.48 14.784 L 147.48 14.784 L 147.48 14.784 Q 149.136 15.888 149.952 17.712 L 149.952 17.712 L 154.272 17.712 Z  M 145.248 22.512 L 145.248 22.512 L 145.248 22.512 Q 144 22.272 143.112 21.312 L 143.112 21.312 L 143.112 21.312 Q 142.224 20.352 142.08 19.008 L 142.08 19.008 L 142.08 19.008 Q 141.312 19.488 140.784 20.28 L 140.784 20.28 L 140.784 20.28 Q 140.256 21.072 140.112 21.936 L 140.112 21.936 L 140.112 21.936 Q 140.112 21.984 140.112 22.056 L 140.112 22.056 L 140.112 22.056 Q 140.112 22.128 140.112 22.176 L 140.112 22.176 L 140.112 22.176 Q 140.064 22.224 140.064 22.296 L 140.064 22.296 L 140.064 22.296 Q 140.064 22.368 140.064 22.416 L 140.064 22.416 L 140.064 22.416 Q 140.112 23.28 140.616 23.952 L 140.616 23.952 L 140.616 23.952 Q 141.12 24.624 142.128 24.624 L 142.128 24.624 L 142.128 24.624 Q 143.088 24.624 143.928 24 L 143.928 24 L 143.928 24 Q 144.768 23.376 145.248 22.512 L 145.248 22.512 Z " fill="rgb(255,255,255)"/></g></svg>